<svg width="352" height="352" viewBox="0 0 352 352" fill="none" xmlns="http://www.w3.org/2000/svg">
<path d="M317.469 286.725H42.9088V297.989H317.469V286.725Z" fill="#0582ca"/>
<path opacity="0.5" d="M317.469 286.725H42.9088V297.989H317.469V286.725Z" fill="white"/>
<path d="M111.281 165.912C109.938 166.348 108.62 166.858 107.332 167.439C108.036 166.918 108.74 166.39 109.444 165.848C112.584 163.331 115.569 160.628 118.385 157.752C115.083 160.966 111.554 163.937 107.825 166.644C108.334 165.749 108.785 164.822 109.176 163.87C109.845 162.117 110.007 160.35 108.332 159.414C106.276 158.259 103.777 159.984 104.438 162.934C104.836 164.58 105.612 166.111 106.705 167.404C104.275 169.086 101.738 170.608 99.1092 171.959L98.8557 172.086C99.4145 171.123 99.9061 170.124 100.327 169.094C100.996 167.348 101.158 165.574 99.4823 164.644C97.4266 163.483 94.9274 165.215 95.5892 168.164C95.9825 169.79 96.7462 171.304 97.8208 172.586C94.6599 174.141 91.3863 175.465 88.1408 176.901L87.6692 177.112C88.3049 176.431 88.8929 175.706 89.4292 174.944C90.4922 173.402 91.0554 171.727 89.6474 170.417C87.9156 168.812 85.0855 169.917 85.0362 172.959C85.0369 174.638 85.4299 176.294 86.1837 177.795C83.1468 179.205 80.2599 180.917 77.5668 182.906L77.4823 182.977C77.8461 182.399 78.1775 181.802 78.4749 181.188C79.2704 179.492 79.5661 177.746 77.968 176.683C77.6423 176.457 77.2694 176.309 76.8777 176.248C76.4861 176.188 76.0858 176.218 75.7073 176.335C75.3288 176.453 74.9819 176.654 74.693 176.926C74.4041 177.197 74.1807 177.53 74.0397 177.901C73.827 177.569 73.5371 177.294 73.1949 177.098C71.5828 176.169 69.9988 177.176 68.6471 178.598C68.2951 178.971 67.9431 179.365 67.6404 179.766C68.6869 176.855 70.0045 174.047 71.5757 171.382C73.0667 172.04 74.6769 172.385 76.3066 172.396C79.5168 172.396 80.8756 169.72 79.2986 168.059C78.0173 166.714 76.2151 167.228 74.5114 168.214C73.9481 168.541 73.4029 168.898 72.8781 169.284C74.5121 166.825 76.3666 164.521 78.4186 162.399C79.7396 163.49 81.278 164.286 82.9312 164.736C86.05 165.503 88.0141 163.244 86.8807 161.251C85.9655 159.632 84.0647 159.695 82.1991 160.237C81.3107 160.509 80.4386 160.831 79.5872 161.202C80.4391 160.378 81.3191 159.583 82.2061 158.794C83.3818 157.795 84.5927 156.83 85.8176 155.887C87.1427 156.943 88.6755 157.708 90.3162 158.132C93.4349 158.9 95.392 156.64 94.2656 154.648C93.3504 153.028 91.4496 153.092 89.584 153.634C89.1405 153.761 88.704 153.916 88.2676 154.077C89.8938 152.916 91.5482 151.782 93.1956 150.656L94.7303 149.607C96.1061 150.761 97.7224 151.594 99.4612 152.043C102.58 152.81 104.537 150.55 103.411 148.558C102.495 146.939 100.595 147.002 98.729 147.544C97.9904 147.766 97.2642 148.026 96.5536 148.326C96.8704 148.1 97.1872 147.875 97.497 147.622C98.0813 147.206 98.6516 146.777 99.2218 146.34C99.9258 145.812 100.588 145.221 101.277 144.665C101.665 144.355 102.045 144.024 102.418 143.686C103.8 144.852 105.427 145.691 107.177 146.143C110.296 146.911 112.253 144.651 111.126 142.659C110.211 141.039 108.31 141.103 106.445 141.645C105.399 141.968 104.373 142.356 103.375 142.806C104.65 141.624 105.882 140.392 107.043 139.11L107.276 138.843C107.775 138.287 108.275 137.716 108.754 137.139C109.233 136.562 109.845 135.78 110.366 135.084C112.512 132.28 114.274 129.202 115.604 125.932C114.208 129.161 112.39 132.191 110.197 134.943C108.027 137.706 105.607 140.263 102.967 142.581L102.678 142.828C103.286 141.788 103.822 140.708 104.284 139.596C104.988 137.85 105.114 136.076 103.439 135.147C101.383 133.985 98.8839 135.717 99.5456 138.667C99.9682 140.414 100.817 142.03 102.017 143.37L101.397 143.905L100.693 144.51C100.278 144.841 99.8624 145.158 99.44 145.475L98.736 145.988C98.1376 146.432 97.5252 146.861 96.9127 147.284L96.0397 147.882L95.04 148.586C95.6199 147.587 96.1326 146.549 96.5748 145.482C97.2436 143.729 97.4055 141.962 95.73 141.025C93.6743 139.871 91.1751 141.603 91.8368 144.545C92.247 146.239 93.0556 147.81 94.1952 149.128L93.456 149.607L90.7104 151.402L90.1754 151.754L88.6477 152.775L87.986 153.219C87.282 153.704 86.578 154.197 85.874 154.704C86.4661 153.689 86.9882 152.636 87.4368 151.55C88.1056 149.804 88.2676 148.03 86.592 147.101C84.5364 145.939 82.0372 147.671 82.6989 150.621C83.1167 152.336 83.9427 153.925 85.1066 155.253C83.9098 156.133 82.7341 157.034 81.5866 157.978C80.7488 158.682 79.9181 159.386 79.1156 160.146C79.4686 159.495 79.7813 158.822 80.0519 158.132C80.7559 156.38 80.8826 154.612 79.2071 153.683C77.1514 152.522 74.6522 154.253 75.314 157.203C75.7104 158.828 76.4738 160.34 77.5456 161.624C75.2656 163.892 73.2098 166.375 71.4068 169.037C71.6126 168.269 71.7701 167.488 71.8784 166.7C72.1037 164.842 71.8362 163.096 69.9847 162.589C67.7037 161.962 65.6973 164.243 67.056 166.961C67.8396 168.455 68.9574 169.749 70.3226 170.741C68.5564 173.642 67.0757 176.707 65.9015 179.893C65.8773 179.228 65.8115 178.565 65.7044 177.908C65.3946 176.056 64.6413 174.458 62.7194 174.493C60.361 174.543 59.0868 177.309 61.1565 179.52C62.2678 180.674 63.6216 181.566 65.12 182.132C64.3213 184.595 63.6678 187.103 63.1629 189.644C63.0855 190.045 63.0221 190.446 62.9447 190.847C62.8602 190.925 62.7757 191.002 62.6983 191.087C62.6138 190.742 62.5152 190.383 62.4026 190.052C61.8112 188.278 60.8186 186.806 58.9319 187.144C56.6016 187.546 55.7639 190.467 58.1575 192.347C59.3777 193.274 60.7819 193.929 62.2759 194.269L62.3604 194.473C62.1069 196.381 61.9098 198.303 61.7901 200.232C61.6986 201.64 61.6493 203.111 61.6212 204.554C59.6077 204.554 58.1856 206.765 59.5725 209.158C60.1591 210.15 60.9088 211.035 61.7901 211.777C61.9591 214.488 62.2266 217.198 62.5856 219.887C62.3006 219.625 61.9522 219.44 61.5746 219.353C61.1969 219.265 60.803 219.277 60.4314 219.388C59.1642 219.732 58.594 220.753 58.3828 222.006C57.9385 222.477 57.6873 223.098 57.6788 223.745C56.7354 222.337 55.8484 220.929 54.9824 219.437C56.3018 218.426 57.3953 217.15 58.1927 215.692C59.7133 212.876 58.0026 210.404 55.792 211.003C53.9968 211.489 53.5956 213.326 53.68 215.29C53.7072 216.035 53.7777 216.778 53.8912 217.515C53.5744 216.973 53.2647 216.424 52.962 215.882C52.1876 214.474 51.554 213.066 50.7936 211.658C50.6106 211.313 50.4487 210.954 50.2938 210.602C51.7792 209.858 53.0914 208.81 54.1447 207.525C56.1652 205.033 54.9472 202.294 52.6663 202.47C50.8148 202.618 50.0756 204.343 49.7658 206.286C49.6361 207.132 49.5609 207.986 49.5405 208.842L48.8788 207.314C47.4714 203.848 46.3116 200.286 45.408 196.655C47.0855 196.058 48.6098 195.096 49.8714 193.839C52.1312 191.551 51.1949 188.714 48.9069 188.658C47.0484 188.616 46.1402 190.256 45.6333 192.178C45.3844 193.198 45.1963 194.233 45.0701 195.276C44.5844 193.164 44.162 191.087 43.81 188.975C43.5706 187.665 43.4157 186.335 43.2468 185.011C45.0533 184.653 46.7551 183.89 48.224 182.78C50.7584 180.808 50.1952 177.852 47.9354 177.521C46.098 177.232 44.9856 178.746 44.2394 180.569C43.7998 181.719 43.4306 182.894 43.1341 184.089C42.9933 182.554 42.8314 181.012 42.761 179.471C42.5604 176.287 42.5745 173.093 42.8032 169.91C42.4782 173.091 42.3677 176.29 42.4724 179.485C42.4724 180.956 42.5991 182.42 42.6906 183.892C42.2868 182.892 41.8164 181.921 41.2826 180.984C40.3181 179.372 39.0439 178.168 37.2628 178.872C35.0804 179.773 34.8903 182.801 37.6288 184.124C39.242 184.863 41.0105 185.199 42.7821 185.103C42.9088 186.412 43.0144 187.729 43.2186 189.031C43.4932 191.108 43.8452 193.171 44.2535 195.219C43.808 194.433 43.3094 193.678 42.761 192.959C41.5994 191.488 40.1703 190.446 38.537 191.396C36.4884 192.572 36.6925 195.62 39.5789 196.557C41.2161 197.066 42.9504 197.182 44.6407 196.895C45.4416 200.566 46.4978 204.177 47.8016 207.701L48.224 208.757C47.8514 208.264 47.4494 207.794 47.0202 207.349C45.7178 205.997 44.2042 205.103 42.6272 206.223C40.7053 207.596 41.2192 210.588 44.1831 211.249C45.8264 211.584 47.5246 211.535 49.1463 211.108C49.2871 211.468 49.442 211.812 49.618 212.179C50.322 213.629 50.9485 215.114 51.6877 216.536L52.3284 217.754C51.9642 217.434 51.5835 217.133 51.1879 216.853C49.6532 215.776 47.9917 215.185 46.6612 216.572C45.0349 218.282 46.0909 221.126 49.1322 221.218C50.6882 221.259 52.2346 220.964 53.666 220.352C54.5319 221.929 55.433 223.485 56.4045 225.012C56.7636 225.597 57.1085 226.174 57.5168 226.751C56.9643 226.233 56.3788 225.751 55.7639 225.308C54.2362 224.231 52.5677 223.64 51.2442 225.027C49.6109 226.737 50.674 229.581 53.7152 229.673C55.4534 229.693 57.1714 229.3 58.7277 228.525C59.2252 229.229 59.7462 229.933 60.2906 230.637C59.1572 231.954 59.5232 234.157 61.8253 235.164C62.944 235.628 64.1354 235.893 65.3453 235.946L65.7818 236.276L65.8592 236.333C67.3125 241.771 69.0371 247.133 71.0266 252.398C71.8761 254.646 72.7725 256.873 73.7159 259.079H65.2679V292.399H91.0765V259.072H77.2852C76.1095 256.502 74.9831 253.905 73.9271 251.279C72.2023 246.963 70.6394 242.591 69.2736 238.149C69.5045 238.219 69.7397 238.273 69.9776 238.311C70.2905 238.373 70.6109 238.387 70.928 238.353L70.562 236.037H70.5127H70.3156C70.1888 236.037 70.0199 235.974 69.872 235.953C69.5486 235.861 69.2331 235.743 68.9287 235.601L68.5626 235.432C69.9193 234.959 71.1788 234.243 72.2797 233.32C74.7296 231.208 74.0327 228.321 71.7588 228.075C69.9072 227.871 68.8653 229.434 68.2388 231.285C68.0487 231.813 67.8938 232.362 67.753 232.897C67.6263 232.404 67.4855 231.912 67.3658 231.419C66.9927 229.962 66.6618 228.49 66.3239 227.019C67.7949 226.551 69.1604 225.8 70.3437 224.808C72.7936 222.696 72.0967 219.817 69.8228 219.571C67.9712 219.366 66.9293 220.929 66.3028 222.781C66.1109 223.319 65.9464 223.866 65.81 224.421C65.5988 223.344 65.3876 222.274 65.2045 221.197C65.0637 220.394 64.944 219.599 64.8244 218.796C64.7751 217.656 64.761 216.515 64.7751 215.368C64.7751 214.741 64.7751 214.115 64.8314 213.481C66.2105 213.923 67.6587 214.109 69.1047 214.03C72.3079 213.819 73.4976 211.073 71.8221 209.517C70.4564 208.243 68.6893 208.877 67.049 209.961C66.3122 210.459 65.6069 211.002 64.937 211.587C65.1318 208.908 65.5367 206.248 66.1479 203.632C66.5128 202.092 66.964 200.574 67.4996 199.084C68.971 199.594 70.5278 199.811 72.0826 199.725C75.2858 199.521 76.4756 196.775 74.8 195.212C73.4343 193.945 71.6672 194.572 70.0269 195.663C69.4444 196.056 68.8828 196.479 68.3444 196.93C68.9603 195.472 69.6802 194.06 70.4986 192.706C72.1366 189.983 74.1833 187.528 76.5671 185.427C77.7917 186.561 79.2401 187.427 80.8192 187.968C83.8676 188.968 85.9936 186.856 85.0432 184.786C84.2548 183.103 82.3751 183.026 80.4532 183.427C79.7219 183.585 79.0003 183.785 78.2919 184.026L78.3341 183.983C80.9609 181.933 83.7919 180.159 86.7821 178.689C87.8337 180.074 89.1742 181.212 90.7104 182.026C93.5616 183.498 95.9975 181.752 95.3639 179.555C94.85 177.767 93.0125 177.394 91.0413 177.443C90.2724 177.488 89.5064 177.572 88.7463 177.697C91.9143 176.197 95.1597 174.782 98.2785 173.128L98.3418 173.092C99.7426 174.298 101.402 175.166 103.192 175.627C106.311 176.401 108.275 174.134 107.149 172.142C106.227 170.523 104.333 170.593 102.46 171.128C101.932 171.283 101.404 171.473 100.897 171.67C102.982 170.456 105.003 169.136 106.952 167.714L107.121 167.89C107.117 167.864 107.117 167.838 107.121 167.812C108.532 169.031 110.203 169.91 112.006 170.382C115.125 171.149 117.082 168.89 115.956 166.897C115.048 165.299 113.175 165.37 111.281 165.912ZM62.0576 229.701C61.424 228.948 60.8186 228.173 60.2202 227.385C60.368 227.258 60.5229 227.117 60.6778 226.963C61.5551 227.237 62.4633 227.4 63.3812 227.448C63.3812 227.498 63.3812 227.547 63.3812 227.596L63.8106 227.505C64.0288 228.617 64.2682 229.722 64.5146 230.828C64.2269 230.455 63.8529 230.158 63.425 229.961C62.997 229.765 62.5278 229.676 62.0576 229.701ZM64.3597 203.196C64.1415 204.019 63.9514 204.857 63.7824 205.695C63.7506 205.641 63.7129 205.592 63.6698 205.547C63.6698 203.829 63.698 202.116 63.7543 200.408C63.8036 199.211 63.888 198.021 63.9936 196.824C64.5698 197.418 65.207 197.949 65.8944 198.408C65.2889 199.972 64.7765 201.571 64.3597 203.196ZM67.2461 195.311C67.2461 195.001 67.3165 194.684 67.3376 194.374C67.3376 194.212 67.3376 194.058 67.3376 193.903C67.5911 193.825 67.8445 193.734 68.105 193.628C67.8093 194.184 67.5207 194.74 67.2461 195.311ZM70.914 189.355C70.7891 189.078 70.6101 188.829 70.3877 188.622C70.1653 188.416 69.9038 188.255 69.6186 188.151C67.8868 187.447 66.4717 188.714 65.3524 190.333L65.3031 190.411H65.1904C65.0724 190.384 64.9523 190.368 64.8314 190.362C64.8314 190.263 64.8314 190.164 64.8807 190.066C65.3274 187.526 65.9269 185.015 66.6759 182.547C68.292 182.751 69.9327 182.624 71.4983 182.174C72.4558 181.928 73.2943 181.349 73.8637 180.541C74.1766 181.958 74.765 183.3 75.5956 184.49C73.8687 185.951 72.2996 187.588 70.914 189.376V189.355Z" fill="#0582ca"/>
<path opacity="0.5" d="M111.281 165.912C109.938 166.348 108.62 166.858 107.332 167.439C108.036 166.918 108.74 166.39 109.444 165.848C112.584 163.331 115.569 160.628 118.385 157.752C115.083 160.966 111.554 163.937 107.825 166.644C108.334 165.749 108.785 164.822 109.176 163.87C109.845 162.117 110.007 160.35 108.332 159.414C106.276 158.259 103.777 159.984 104.438 162.934C104.836 164.58 105.612 166.111 106.705 167.404C104.275 169.086 101.738 170.608 99.1092 171.959L98.8557 172.086C99.4145 171.123 99.9061 170.124 100.327 169.094C100.996 167.348 101.158 165.574 99.4823 164.644C97.4266 163.483 94.9274 165.215 95.5892 168.164C95.9825 169.79 96.7462 171.304 97.8208 172.586C94.6599 174.141 91.3863 175.465 88.1408 176.901L87.6692 177.112C88.3049 176.431 88.8929 175.706 89.4292 174.944C90.4922 173.402 91.0554 171.727 89.6474 170.417C87.9156 168.812 85.0855 169.917 85.0362 172.959C85.0369 174.638 85.4299 176.294 86.1837 177.795C83.1468 179.205 80.2599 180.917 77.5668 182.906L77.4823 182.977C77.8461 182.399 78.1775 181.802 78.4749 181.188C79.2704 179.492 79.5661 177.746 77.968 176.683C77.6423 176.457 77.2694 176.309 76.8777 176.248C76.4861 176.188 76.0858 176.218 75.7073 176.335C75.3288 176.453 74.9819 176.654 74.693 176.926C74.4041 177.197 74.1807 177.53 74.0397 177.901C73.827 177.569 73.5371 177.294 73.1949 177.098C71.5828 176.169 69.9988 177.176 68.6471 178.598C68.2951 178.971 67.9431 179.365 67.6404 179.766C68.6869 176.855 70.0045 174.047 71.5757 171.382C73.0667 172.04 74.6769 172.385 76.3066 172.396C79.5168 172.396 80.8756 169.72 79.2986 168.059C78.0173 166.714 76.2151 167.228 74.5114 168.214C73.9481 168.541 73.4029 168.898 72.8781 169.284C74.5121 166.825 76.3666 164.521 78.4186 162.399C79.7396 163.49 81.278 164.286 82.9312 164.736C86.05 165.503 88.0141 163.244 86.8807 161.251C85.9655 159.632 84.0647 159.695 82.1991 160.237C81.3107 160.509 80.4386 160.831 79.5872 161.202C80.4391 160.378 81.3191 159.583 82.2061 158.794C83.3818 157.795 84.5927 156.83 85.8176 155.887C87.1427 156.943 88.6755 157.708 90.3162 158.132C93.4349 158.9 95.392 156.64 94.2656 154.648C93.3504 153.028 91.4496 153.092 89.584 153.634C89.1405 153.761 88.704 153.916 88.2676 154.077C89.8938 152.916 91.5482 151.782 93.1956 150.656L94.7303 149.607C96.1061 150.761 97.7224 151.594 99.4612 152.043C102.58 152.81 104.537 150.55 103.411 148.558C102.495 146.939 100.595 147.002 98.729 147.544C97.9904 147.766 97.2642 148.026 96.5536 148.326C96.8704 148.1 97.1872 147.875 97.497 147.622C98.0813 147.206 98.6516 146.777 99.2218 146.34C99.9258 145.812 100.588 145.221 101.277 144.665C101.665 144.355 102.045 144.024 102.418 143.686C103.8 144.852 105.427 145.691 107.177 146.143C110.296 146.911 112.253 144.651 111.126 142.659C110.211 141.039 108.31 141.103 106.445 141.645C105.399 141.968 104.373 142.356 103.375 142.806C104.65 141.624 105.882 140.392 107.043 139.11L107.276 138.843C107.775 138.287 108.275 137.716 108.754 137.139C109.233 136.562 109.845 135.78 110.366 135.084C112.512 132.28 114.274 129.202 115.604 125.932C114.208 129.161 112.39 132.191 110.197 134.943C108.027 137.706 105.607 140.263 102.967 142.581L102.678 142.828C103.286 141.788 103.822 140.708 104.284 139.596C104.988 137.85 105.114 136.076 103.439 135.147C101.383 133.985 98.8839 135.717 99.5456 138.667C99.9682 140.414 100.817 142.03 102.017 143.37L101.397 143.905L100.693 144.51C100.278 144.841 99.8624 145.158 99.44 145.475L98.736 145.988C98.1376 146.432 97.5252 146.861 96.9127 147.284L96.0397 147.882L95.04 148.586C95.6199 147.587 96.1326 146.549 96.5748 145.482C97.2436 143.729 97.4055 141.962 95.73 141.025C93.6743 139.871 91.1751 141.603 91.8368 144.545C92.247 146.239 93.0556 147.81 94.1952 149.128L93.456 149.607L90.7104 151.402L90.1754 151.754L88.6477 152.775L87.986 153.219C87.282 153.704 86.578 154.197 85.874 154.704C86.4661 153.689 86.9882 152.636 87.4368 151.55C88.1056 149.804 88.2676 148.03 86.592 147.101C84.5364 145.939 82.0372 147.671 82.6989 150.621C83.1167 152.336 83.9427 153.925 85.1066 155.253C83.9098 156.133 82.7341 157.034 81.5866 157.978C80.7488 158.682 79.9181 159.386 79.1156 160.146C79.4686 159.495 79.7813 158.822 80.0519 158.132C80.7559 156.38 80.8826 154.612 79.2071 153.683C77.1514 152.522 74.6522 154.253 75.314 157.203C75.7104 158.828 76.4738 160.34 77.5456 161.624C75.2656 163.892 73.2098 166.375 71.4068 169.037C71.6126 168.269 71.7701 167.488 71.8784 166.7C72.1037 164.842 71.8362 163.096 69.9847 162.589C67.7037 161.962 65.6973 164.243 67.056 166.961C67.8396 168.455 68.9574 169.749 70.3226 170.741C68.5564 173.642 67.0757 176.707 65.9015 179.893C65.8773 179.228 65.8115 178.565 65.7044 177.908C65.3946 176.056 64.6413 174.458 62.7194 174.493C60.361 174.543 59.0868 177.309 61.1565 179.52C62.2678 180.674 63.6216 181.566 65.12 182.132C64.3213 184.595 63.6678 187.103 63.1629 189.644C63.0855 190.045 63.0221 190.446 62.9447 190.847C62.8602 190.925 62.7757 191.002 62.6983 191.087C62.6138 190.742 62.5152 190.383 62.4026 190.052C61.8112 188.278 60.8186 186.806 58.9319 187.144C56.6016 187.546 55.7639 190.467 58.1575 192.347C59.3777 193.274 60.7819 193.929 62.2759 194.269L62.3604 194.473C62.1069 196.381 61.9098 198.303 61.7901 200.232C61.6986 201.64 61.6493 203.111 61.6212 204.554C59.6077 204.554 58.1856 206.765 59.5725 209.158C60.1591 210.15 60.9088 211.035 61.7901 211.777C61.9591 214.488 62.2266 217.198 62.5856 219.887C62.3006 219.625 61.9522 219.44 61.5746 219.353C61.1969 219.265 60.803 219.277 60.4314 219.388C59.1642 219.732 58.594 220.753 58.3828 222.006C57.9385 222.477 57.6873 223.098 57.6788 223.745C56.7354 222.337 55.8484 220.929 54.9824 219.437C56.3018 218.426 57.3953 217.15 58.1927 215.692C59.7133 212.876 58.0026 210.404 55.792 211.003C53.9968 211.489 53.5956 213.326 53.68 215.29C53.7072 216.035 53.7777 216.778 53.8912 217.515C53.5744 216.973 53.2647 216.424 52.962 215.882C52.1876 214.474 51.554 213.066 50.7936 211.658C50.6106 211.313 50.4487 210.954 50.2938 210.602C51.7792 209.858 53.0914 208.81 54.1447 207.525C56.1652 205.033 54.9472 202.294 52.6663 202.47C50.8148 202.618 50.0756 204.343 49.7658 206.286C49.6361 207.132 49.5609 207.986 49.5405 208.842L48.8788 207.314C47.4714 203.848 46.3116 200.286 45.408 196.655C47.0855 196.058 48.6098 195.096 49.8714 193.839C52.1312 191.551 51.1949 188.714 48.9069 188.658C47.0484 188.616 46.1402 190.256 45.6333 192.178C45.3844 193.198 45.1963 194.233 45.0701 195.276C44.5844 193.164 44.162 191.087 43.81 188.975C43.5706 187.665 43.4157 186.335 43.2468 185.011C45.0533 184.653 46.7551 183.89 48.224 182.78C50.7584 180.808 50.1952 177.852 47.9354 177.521C46.098 177.232 44.9856 178.746 44.2394 180.569C43.7998 181.719 43.4306 182.894 43.1341 184.089C42.9933 182.554 42.8314 181.012 42.761 179.471C42.5604 176.287 42.5745 173.093 42.8032 169.91C42.4782 173.091 42.3677 176.29 42.4724 179.485C42.4724 180.956 42.5991 182.42 42.6906 183.892C42.2868 182.892 41.8164 181.921 41.2826 180.984C40.3181 179.372 39.0439 178.168 37.2628 178.872C35.0804 179.773 34.8903 182.801 37.6288 184.124C39.242 184.863 41.0105 185.199 42.7821 185.103C42.9088 186.412 43.0144 187.729 43.2186 189.031C43.4932 191.108 43.8452 193.171 44.2535 195.219C43.808 194.433 43.3094 193.678 42.761 192.959C41.5994 191.488 40.1703 190.446 38.537 191.396C36.4884 192.572 36.6925 195.62 39.5789 196.557C41.2161 197.066 42.9504 197.182 44.6407 196.895C45.4416 200.566 46.4978 204.177 47.8016 207.701L48.224 208.757C47.8514 208.264 47.4494 207.794 47.0202 207.349C45.7178 205.997 44.2042 205.103 42.6272 206.223C40.7053 207.596 41.2192 210.588 44.1831 211.249C45.8264 211.584 47.5246 211.535 49.1463 211.108C49.2871 211.468 49.442 211.812 49.618 212.179C50.322 213.629 50.9485 215.114 51.6877 216.536L52.3284 217.754C51.9642 217.434 51.5835 217.133 51.1879 216.853C49.6532 215.776 47.9917 215.185 46.6612 216.572C45.0349 218.282 46.0909 221.126 49.1322 221.218C50.6882 221.259 52.2346 220.964 53.666 220.352C54.5319 221.929 55.433 223.485 56.4045 225.012C56.7636 225.597 57.1085 226.174 57.5168 226.751C56.9643 226.233 56.3788 225.751 55.7639 225.308C54.2362 224.231 52.5677 223.64 51.2442 225.027C49.6109 226.737 50.674 229.581 53.7152 229.673C55.4534 229.693 57.1714 229.3 58.7277 228.525C59.2252 229.229 59.7462 229.933 60.2906 230.637C59.1572 231.954 59.5232 234.157 61.8253 235.164C62.944 235.628 64.1354 235.893 65.3453 235.946L65.7818 236.276L65.8592 236.333C67.3125 241.771 69.0371 247.133 71.0266 252.398C71.8761 254.646 72.7725 256.873 73.7159 259.079H65.2679V292.399H91.0765V259.072H77.2852C76.1095 256.502 74.9831 253.905 73.9271 251.279C72.2023 246.963 70.6394 242.591 69.2736 238.149C69.5045 238.219 69.7397 238.273 69.9776 238.311C70.2905 238.373 70.6109 238.387 70.928 238.353L70.562 236.037H70.5127H70.3156C70.1888 236.037 70.0199 235.974 69.872 235.953C69.5486 235.861 69.2331 235.743 68.9287 235.601L68.5626 235.432C69.9193 234.959 71.1788 234.243 72.2797 233.32C74.7296 231.208 74.0327 228.321 71.7588 228.075C69.9072 227.871 68.8653 229.434 68.2388 231.285C68.0487 231.813 67.8938 232.362 67.753 232.897C67.6263 232.404 67.4855 231.912 67.3658 231.419C66.9927 229.962 66.6618 228.49 66.3239 227.019C67.7949 226.551 69.1604 225.8 70.3437 224.808C72.7936 222.696 72.0967 219.817 69.8228 219.571C67.9712 219.366 66.9293 220.929 66.3028 222.781C66.1109 223.319 65.9464 223.866 65.81 224.421C65.5988 223.344 65.3876 222.274 65.2045 221.197C65.0637 220.394 64.944 219.599 64.8244 218.796C64.7751 217.656 64.761 216.515 64.7751 215.368C64.7751 214.741 64.7751 214.115 64.8314 213.481C66.2105 213.923 67.6587 214.109 69.1047 214.03C72.3079 213.819 73.4976 211.073 71.8221 209.517C70.4564 208.243 68.6893 208.877 67.049 209.961C66.3122 210.459 65.6069 211.002 64.937 211.587C65.1318 208.908 65.5367 206.248 66.1479 203.632C66.5128 202.092 66.964 200.574 67.4996 199.084C68.971 199.594 70.5278 199.811 72.0826 199.725C75.2858 199.521 76.4756 196.775 74.8 195.212C73.4343 193.945 71.6672 194.572 70.0269 195.663C69.4444 196.056 68.8828 196.479 68.3444 196.93C68.9603 195.472 69.6802 194.06 70.4986 192.706C72.1366 189.983 74.1833 187.528 76.5671 185.427C77.7917 186.561 79.2401 187.427 80.8192 187.968C83.8676 188.968 85.9936 186.856 85.0432 184.786C84.2548 183.103 82.3751 183.026 80.4532 183.427C79.7219 183.585 79.0003 183.785 78.2919 184.026L78.3341 183.983C80.9609 181.933 83.7919 180.159 86.7821 178.689C87.8337 180.074 89.1742 181.212 90.7104 182.026C93.5616 183.498 95.9975 181.752 95.3639 179.555C94.85 177.767 93.0125 177.394 91.0413 177.443C90.2724 177.488 89.5064 177.572 88.7463 177.697C91.9143 176.197 95.1597 174.782 98.2785 173.128L98.3418 173.092C99.7426 174.298 101.402 175.166 103.192 175.627C106.311 176.401 108.275 174.134 107.149 172.142C106.227 170.523 104.333 170.593 102.46 171.128C101.932 171.283 101.404 171.473 100.897 171.67C102.982 170.456 105.003 169.136 106.952 167.714L107.121 167.89C107.117 167.864 107.117 167.838 107.121 167.812C108.532 169.031 110.203 169.91 112.006 170.382C115.125 171.149 117.082 168.89 115.956 166.897C115.048 165.299 113.175 165.37 111.281 165.912ZM62.0576 229.701C61.424 228.948 60.8186 228.173 60.2202 227.385C60.368 227.258 60.5229 227.117 60.6778 226.963C61.5551 227.237 62.4633 227.4 63.3812 227.448C63.3812 227.498 63.3812 227.547 63.3812 227.596L63.8106 227.505C64.0288 228.617 64.2682 229.722 64.5146 230.828C64.2269 230.455 63.8529 230.158 63.425 229.961C62.997 229.765 62.5278 229.676 62.0576 229.701ZM64.3597 203.196C64.1415 204.019 63.9514 204.857 63.7824 205.695C63.7506 205.641 63.7129 205.592 63.6698 205.547C63.6698 203.829 63.698 202.116 63.7543 200.408C63.8036 199.211 63.888 198.021 63.9936 196.824C64.5698 197.418 65.207 197.949 65.8944 198.408C65.2889 199.972 64.7765 201.571 64.3597 203.196ZM67.2461 195.311C67.2461 195.001 67.3165 194.684 67.3376 194.374C67.3376 194.212 67.3376 194.058 67.3376 193.903C67.5911 193.825 67.8445 193.734 68.105 193.628C67.8093 194.184 67.5207 194.74 67.2461 195.311ZM70.914 189.355C70.7891 189.078 70.6101 188.829 70.3877 188.622C70.1653 188.416 69.9038 188.255 69.6186 188.151C67.8868 187.447 66.4717 188.714 65.3524 190.333L65.3031 190.411H65.1904C65.0724 190.384 64.9523 190.368 64.8314 190.362C64.8314 190.263 64.8314 190.164 64.8807 190.066C65.3274 187.526 65.9269 185.015 66.6759 182.547C68.292 182.751 69.9327 182.624 71.4983 182.174C72.4558 181.928 73.2943 181.349 73.8637 180.541C74.1766 181.958 74.765 183.3 75.5956 184.49C73.8687 185.951 72.2996 187.588 70.914 189.376V189.355Z" fill="black"/>
<path d="M311.4 293.8C311.4 295.49 272.737 296.856 225.048 296.856C177.359 296.856 138.688 295.49 138.688 293.8C138.688 292.111 177.352 290.752 225.048 290.752C272.744 290.752 311.4 292.118 311.4 293.8Z" fill="#0582ca"/>
<path opacity="0.3" d="M311.4 293.8C311.4 295.49 272.737 296.856 225.048 296.856C177.359 296.856 138.688 295.49 138.688 293.8C138.688 292.111 177.352 290.752 225.048 290.752C272.744 290.752 311.4 292.118 311.4 293.8Z" fill="#051923"/>
<path d="M218.831 266.387C218.831 266.387 223.055 284.437 221.204 287.408C218.817 291.287 193.368 293.624 193.368 293.624H249.484C249.484 293.624 256.524 291.653 254.412 286C252.771 281.621 244.922 266.387 244.922 266.387H218.831Z" fill="white" stroke="#051923" stroke-linecap="round" stroke-linejoin="round"/>
<path d="M217.606 266.387C217.606 266.387 222.084 284.592 219.979 287.408C217.874 290.224 193.368 292.371 193.368 292.371H249.744C249.744 292.371 254.489 290.456 253.172 286C251.856 281.544 243.69 266.387 243.69 266.387H217.606Z" fill="white" stroke="#051923" stroke-linecap="round" stroke-linejoin="round"/>
<g style="mix-blend-mode:multiply">
<path d="M243.69 266.387H217.642C217.642 266.387 220.289 277.172 220.549 283.423H252.229C249.631 277.411 243.69 266.387 243.69 266.387Z" fill="#0582ca"/>
</g>
<path d="M249.484 292.463H193.368V293.624H249.484V292.463Z" fill="white" stroke="#051923" stroke-linecap="round" stroke-linejoin="round"/>
<path d="M311.245 141.173H153.866C150.569 141.173 147.896 143.846 147.896 147.143V262.198C147.896 265.495 150.569 268.168 153.866 268.168H311.245C314.543 268.168 317.215 265.495 317.215 262.198V147.143C317.215 143.846 314.543 141.173 311.245 141.173Z" fill="#0582ca" stroke="#051923" stroke-linecap="round" stroke-linejoin="round"/>
<path d="M307.254 141.173H149.875C146.577 141.173 143.905 143.846 143.905 147.143V262.198C143.905 265.495 146.577 268.168 149.875 268.168H307.254C310.551 268.168 313.224 265.495 313.224 262.198V147.143C313.224 143.846 310.551 141.173 307.254 141.173Z" fill="#051923" stroke="#051923" stroke-linecap="round" stroke-linejoin="round"/>
<path d="M143.905 248.42H313.224V262.184C313.224 263.767 312.595 265.285 311.475 266.405C310.356 267.525 308.837 268.154 307.254 268.154H149.875C148.291 268.154 146.773 267.525 145.653 266.405C144.534 265.285 143.905 263.767 143.905 262.184V248.42Z" fill="white" stroke="#051923" stroke-linecap="round" stroke-linejoin="round"/>
<path d="M304.712 149.072H152.423V238.79H304.712V149.072Z" fill="#0582ca" stroke="#051923" stroke-linecap="round" stroke-linejoin="round"/>
<path d="M231.686 258.291C231.686 257.672 231.503 257.067 231.159 256.553C230.815 256.039 230.327 255.638 229.755 255.402C229.184 255.166 228.555 255.104 227.948 255.225C227.342 255.347 226.785 255.645 226.348 256.083C225.911 256.521 225.614 257.078 225.494 257.685C225.374 258.292 225.437 258.921 225.675 259.492C225.913 260.063 226.314 260.55 226.829 260.893C227.344 261.236 227.949 261.418 228.568 261.416C228.978 261.416 229.384 261.335 229.763 261.178C230.142 261.021 230.486 260.791 230.775 260.5C231.065 260.21 231.295 259.865 231.451 259.486C231.607 259.107 231.687 258.701 231.686 258.291Z" fill="#051923" stroke="#051923" stroke-linecap="round" stroke-linejoin="round"/>
<path d="M303.283 155.394H153.62V163.258H303.283V155.394Z" fill="#051923" stroke="#051923" stroke-linecap="round" stroke-linejoin="round"/>
<path d="M178.309 163.265L176.521 158.407H153.62V163.265V169.706V234.967H303.283V163.265H178.309Z" fill="white" stroke="#051923" stroke-linecap="round" stroke-linejoin="round"/>
<path d="M261.071 294.314C261.071 294.314 262.036 296.644 267.351 297.454C272.666 298.264 308.514 294.068 308.514 294.068C308.514 294.068 310.767 293.505 310.929 292.378C311.091 291.252 305.128 287.95 294.096 286.577C284.496 285.475 274.771 286.578 265.661 289.802C258.819 292.301 261.071 294.314 261.071 294.314Z" fill="white" stroke="#051923" stroke-linecap="round" stroke-linejoin="round"/>
<g style="mix-blend-mode:multiply">
<path d="M302.326 290.365C299.932 290.365 294.518 290.618 290.111 290.998C285.704 291.379 278.404 294.145 274.377 295.525C270.35 296.905 263.93 296.539 263.93 296.539C265.027 296.986 266.177 297.293 267.351 297.454C272.666 298.257 308.514 294.068 308.514 294.068C309.3 293.872 310.025 293.485 310.626 292.941C308.352 291.294 304.283 290.365 302.326 290.365Z" fill="#0582ca"/>
</g>
<path d="M309.302 292.16C309.616 292.325 309.915 292.515 310.196 292.73" stroke="#051923" stroke-linecap="round" stroke-linejoin="round"/>
<path d="M265.021 296.891C268.756 297.002 272.477 296.373 275.968 295.039C283.373 292.124 291.243 290.567 299.2 290.442C303.825 290.407 306.655 291.041 308.352 291.681" stroke="#051923" stroke-linecap="round" stroke-linejoin="round"/>
<path d="M294.765 200.675H248.104V229.075H294.547" stroke="#051923" stroke-width="0.5" stroke-linecap="round" stroke-linejoin="round"/>
<path d="M248.315 208.771H294.976" stroke="#051923" stroke-width="0.5" stroke-linecap="round" stroke-linejoin="round"/>
<path d="M248.315 216.846H294.976" stroke="#051923" stroke-width="0.5" stroke-linecap="round" stroke-linejoin="round"/>
<path d="M248.315 224.921H294.976" stroke="#051923" stroke-width="0.5" stroke-linecap="round" stroke-linejoin="round"/>
<path d="M246.822 200.865H244.907" stroke="#051923" stroke-width="0.5" stroke-linecap="round" stroke-linejoin="round"/>
<path d="M246.822 204.864H244.907" stroke="#051923" stroke-width="0.5" stroke-linecap="round" stroke-linejoin="round"/>
<path d="M246.822 208.87H244.907" stroke="#051923" stroke-width="0.5" stroke-linecap="round" stroke-linejoin="round"/>
<path d="M246.822 212.875H244.907" stroke="#051923" stroke-width="0.5" stroke-linecap="round" stroke-linejoin="round"/>
<path d="M246.822 216.874H244.907" stroke="#051923" stroke-width="0.5" stroke-linecap="round" stroke-linejoin="round"/>
<path d="M246.822 220.88H244.907" stroke="#051923" stroke-width="0.5" stroke-linecap="round" stroke-linejoin="round"/>
<path d="M246.822 224.886H244.907" stroke="#051923" stroke-width="0.5" stroke-linecap="round" stroke-linejoin="round"/>
<path d="M246.822 228.884H244.907" stroke="#051923" stroke-width="0.5" stroke-linecap="round" stroke-linejoin="round"/>
<path d="M251.948 212.045H249.8V228.962H251.948V212.045Z" fill="#051923" stroke="#051923" stroke-linecap="round" stroke-linejoin="round"/>
<path d="M255.756 203.949H253.609V228.962H255.756V203.949Z" fill="#0582ca" stroke="#051923" stroke-linecap="round" stroke-linejoin="round"/>
<path d="M259.572 212.045H257.425V228.962H259.572V212.045Z" fill="white" stroke="#051923" stroke-linecap="round" stroke-linejoin="round"/>
<path d="M268.146 206.568H265.999V228.962H268.146V206.568Z" fill="#051923" stroke="#051923" stroke-linecap="round" stroke-linejoin="round"/>
<path d="M271.955 209.905H269.808V228.962H271.955V209.905Z" fill="#0582ca" stroke="#051923" stroke-linecap="round" stroke-linejoin="round"/>
<path d="M275.771 219.43H273.624V228.962H275.771V219.43Z" fill="white" stroke="#051923" stroke-linecap="round" stroke-linejoin="round"/>
<path d="M284.346 212.045H282.198V228.962H284.346V212.045Z" fill="#051923" stroke="#051923" stroke-linecap="round" stroke-linejoin="round"/>
<path d="M288.154 203.949H286.007V228.962H288.154V203.949Z" fill="#0582ca" stroke="#051923" stroke-linecap="round" stroke-linejoin="round"/>
<path d="M291.97 212.045H289.823V228.962H291.97V212.045Z" fill="white" stroke="#051923" stroke-linecap="round" stroke-linejoin="round"/>
<path opacity="0.4" d="M234.559 173.944L258.368 191.763V166.883L234.559 73.9763V173.944Z" fill="#0582ca" stroke="white" stroke-linecap="round" stroke-linejoin="round"/>
<path opacity="0.4" d="M258.368 191.763H180.928L55.271 173.944H234.559L258.368 191.763Z" fill="#0582ca" stroke="white" stroke-linecap="round" stroke-linejoin="round"/>
<path d="M234.559 73.9763H55.271V164.088H234.559V73.9763Z" fill="#1B1B3A" stroke="#051923" stroke-linecap="round" stroke-linejoin="round"/>
<path d="M62.1843 78.6509H96.448" stroke="white" stroke-width="2" stroke-linecap="round" stroke-linejoin="round"/>
<path d="M229.997 78.2285C229.997 77.7631 229.859 77.3082 229.6 76.9214C229.341 76.5346 228.974 76.2332 228.544 76.0554C228.114 75.8777 227.64 75.8315 227.184 75.9228C226.728 76.0141 226.309 76.2388 225.98 76.5683C225.652 76.8979 225.428 77.3175 225.338 77.7741C225.248 78.2307 225.296 78.7037 225.475 79.1332C225.654 79.5627 225.957 79.9295 226.344 80.187C226.732 80.4445 227.187 80.5812 227.652 80.5798C227.961 80.5798 228.266 80.519 228.551 80.4007C228.836 80.2825 229.095 80.1092 229.313 79.8907C229.53 79.6723 229.703 79.413 229.82 79.1278C229.938 78.8425 229.998 78.5369 229.997 78.2285Z" fill="white"/>
<path d="M219.951 78.2285C219.949 77.7651 219.811 77.3126 219.552 76.928C219.294 76.5434 218.927 76.244 218.499 76.0676C218.07 75.8913 217.599 75.8459 217.145 75.9371C216.69 76.0284 216.273 76.2522 215.946 76.5803C215.619 76.9085 215.397 77.3262 215.307 77.7808C215.217 78.2353 215.264 78.7063 215.441 79.1343C215.619 79.5622 215.919 79.928 216.305 80.1852C216.69 80.4425 217.143 80.5798 217.606 80.5798C217.915 80.5798 218.22 80.519 218.505 80.4007C218.79 80.2825 219.049 80.1092 219.267 79.8907C219.484 79.6723 219.657 79.413 219.774 79.1278C219.892 78.8425 219.952 78.5369 219.951 78.2285Z" fill="white"/>
<path d="M234.559 83.8323H55.271V173.944H234.559V83.8323Z" fill="white" stroke="#051923" stroke-linecap="round" stroke-linejoin="round"/>
<path d="M226.111 93.2237H67.943V165.496H225.639" stroke="#051923" stroke-width="0.5" stroke-linecap="round" stroke-linejoin="round"/>
<path d="M68.4147 113.823H226.575" stroke="#051923" stroke-width="0.5" stroke-linecap="round" stroke-linejoin="round"/>
<path d="M68.4147 134.38H226.575" stroke="#051923" stroke-width="0.5" stroke-linecap="round" stroke-linejoin="round"/>
<path d="M68.4147 154.936H226.575" stroke="#051923" stroke-width="0.5" stroke-linecap="round" stroke-linejoin="round"/>
<path d="M65.127 93.6883H60.903" stroke="#051923" stroke-width="0.5" stroke-linecap="round" stroke-linejoin="round"/>
<path d="M65.127 103.882H60.903" stroke="#051923" stroke-width="0.5" stroke-linecap="round" stroke-linejoin="round"/>
<path d="M65.127 114.076H60.903" stroke="#051923" stroke-width="0.5" stroke-linecap="round" stroke-linejoin="round"/>
<path d="M65.127 124.263H60.903" stroke="#051923" stroke-width="0.5" stroke-linecap="round" stroke-linejoin="round"/>
<path d="M65.127 134.457H60.903" stroke="#051923" stroke-width="0.5" stroke-linecap="round" stroke-linejoin="round"/>
<path d="M65.127 144.644H60.903" stroke="#051923" stroke-width="0.5" stroke-linecap="round" stroke-linejoin="round"/>
<path d="M65.127 154.838H60.903" stroke="#051923" stroke-width="0.5" stroke-linecap="round" stroke-linejoin="round"/>
<path d="M65.127 165.032H60.903" stroke="#051923" stroke-width="0.5" stroke-linecap="round" stroke-linejoin="round"/>
<path d="M69.1187 114.203C69.1187 114.203 82.9593 114.808 85.7753 112.936C88.5913 111.063 92.3506 107.304 94.695 107.768C97.2367 108.426 99.7437 109.211 102.207 110.12C102.207 110.12 107.839 106.832 109.247 106.832C110.655 106.832 115.343 109.176 119.103 109.176H129.895L134.119 112.464L142.095 110.12L151.015 113.872L156.647 112.936L164.623 117.16H168.383L175.887 120.44H185.743L191.375 123.728L200.295 124.2L207.335 131.24L212.967 130.296L219.071 132.648L224.703 132.176" stroke="#0582ca" stroke-width="3" stroke-linecap="round" stroke-linejoin="round"/>
<path d="M68.8793 116.688H86.247L96.5746 118.096L105.023 118.568L112.527 123.728L123.327 120.44L136.463 125.136L151.015 122.792L156.175 125.136L167.911 111.992H179.647L186.687 104.488L194.191 107.768L198.887 103.544L204.991 106.832L208.743 102.136L211.087 102.608L217.191 100.728L220.007 102.608L224.703 101.672" stroke="#051923" stroke-width="3" stroke-linecap="round" stroke-linejoin="round"/>
<path d="M69.351 162.68H87.655L101.735 154.704L112.063 159.4H119.567L123.327 160.808L131.775 156.584L143.039 149.544L146.791 154.704L153.831 153.768L157.583 154.704L166.975 155.176L177.295 146.728L182.463 152.824L189.031 152.36L192.783 154.704L198.415 153.296L205.927 156.112L216.255 154.704L221.887 155.64L225.167 154.704" stroke="#0582ca" stroke-width="3" stroke-linecap="round" stroke-linejoin="round"/>
<path opacity="0.4" d="M181.4 180.52L223.168 198.331V229.779L181.4 275.32V180.52Z" fill="#0582ca" stroke="white" stroke-linecap="round" stroke-linejoin="round"/>
<path d="M181.4 180.52H89.063V270.632H181.4V180.52Z" fill="#1B1B3A" stroke="#051923" stroke-linecap="round" stroke-linejoin="round"/>
<path d="M181.4 190.376H89.063V275.327H181.4V190.376Z" fill="white" stroke="#051923" stroke-linecap="round" stroke-linejoin="round"/>
<path d="M134.57 232.503L97.9616 232.468C97.8992 227.546 98.8623 222.665 100.789 218.135C102.717 213.606 105.566 209.527 109.155 206.159L134.57 232.503Z" fill="#1B1B3A" stroke="white" stroke-miterlimit="10"/>
<path d="M134.57 232.503L125.066 267.837C117.25 265.812 110.337 261.23 105.429 254.82C100.521 248.41 97.8992 240.541 97.9826 232.468L134.57 232.503Z" fill="#1B1B3A" stroke="white" stroke-miterlimit="10"/>
<path d="M136.21 233.531L153.423 201.238C161.332 205.483 167.406 212.486 170.491 220.915C173.576 229.345 173.456 238.614 170.154 246.961C166.852 255.308 160.598 262.151 152.581 266.19C144.564 270.228 135.343 271.18 126.671 268.865L136.21 233.531Z" fill="#0582ca" stroke="white" stroke-miterlimit="10"/>
<path d="M134.569 232.503L132.69 195.958C139.327 195.515 145.952 196.981 151.782 200.182L134.569 232.503Z" fill="#1B1B3A" stroke="white" stroke-miterlimit="10"/>
<path d="M134.57 232.503L109.176 206.159C115.425 199.882 123.837 196.233 132.69 195.958L134.57 232.503Z" fill="#1B1B3A" stroke="white" stroke-miterlimit="10"/>
<path d="M177.64 185.659C177.64 185.195 177.503 184.742 177.245 184.356C176.988 183.971 176.621 183.67 176.193 183.493C175.765 183.316 175.293 183.269 174.839 183.36C174.384 183.45 173.966 183.673 173.638 184.001C173.31 184.329 173.087 184.747 172.997 185.202C172.906 185.656 172.953 186.128 173.13 186.556C173.308 186.984 173.608 187.351 173.994 187.608C174.379 187.866 174.832 188.003 175.296 188.003C175.604 188.003 175.909 187.943 176.193 187.825C176.478 187.707 176.736 187.534 176.954 187.317C177.171 187.099 177.344 186.84 177.462 186.556C177.58 186.272 177.64 185.967 177.64 185.659Z" fill="white"/>
<path d="M167.601 185.659C167.603 185.194 167.466 184.738 167.208 184.351C166.951 183.963 166.584 183.661 166.155 183.482C165.725 183.302 165.252 183.255 164.796 183.345C164.339 183.435 163.919 183.658 163.59 183.987C163.26 184.315 163.036 184.734 162.944 185.191C162.853 185.647 162.899 186.12 163.077 186.55C163.255 186.98 163.556 187.348 163.943 187.606C164.33 187.865 164.785 188.003 165.25 188.003C165.872 188.003 166.469 187.756 166.91 187.317C167.351 186.878 167.599 186.281 167.601 185.659Z" fill="white"/>
<g style="mix-blend-mode:multiply" opacity="0.73">
<path d="M181.4 190.376H89.063V201.267H181.4V190.376Z" fill="#0582ca"/>
<path d="M181.4 190.376H89.063V201.267H181.4V190.376Z" stroke="white" stroke-linecap="round" stroke-linejoin="round"/>
</g>
</svg>
