<?xml version="1.0" encoding="UTF-8"?>
<!-- Generator: visioncortex VTracer 0.6.3 -->
<svg version="1.1" xmlns="http://www.w3.org/2000/svg" width="1280" height="1280">
<path d="M0 0 C8.5 1.94 16.3 6.04 24 10 C35.2 15.68 45.81 19.97 58 23 C58 23.66 58 24.32 58 25 C58.67 25.12 59.33 25.25 60.02 25.38 C63.63 26.13 67.19 27.05 70.75 28 C71.43 28.18 72.12 28.36 72.82 28.54 C77.88 29.88 77.88 29.88 79 31 C79.89 30.96 80.77 30.92 81.69 30.88 C85 31 85 31 87.56 32.38 C96.27 36.49 107.04 36.38 116.55 37.3 C117.33 37.38 118.11 37.46 118.91 37.54 C119.6 37.6 120.29 37.67 121.01 37.73 C123 38 123 38 124.94 38.51 C127.35 39.08 129.6 39.2 132.07 39.28 C133.54 39.34 133.54 39.34 135.04 39.39 C136.06 39.43 137.08 39.46 138.12 39.5 C149.38 39.89 149.38 39.89 154.78 40.52 C160.96 41.18 167.13 41.19 173.34 41.19 C175.36 41.19 177.39 41.21 179.41 41.22 C188.47 41.24 197.44 40.93 206.06 37.94 C208.91 37.03 211.16 36.81 214.12 36.62 C219.55 36.23 224.18 34.74 229.28 32.91 C232.49 31.83 235.65 31.45 239 31 C240.88 30.29 242.76 29.57 244.63 28.82 C248.65 27.43 252.8 26.61 256.95 25.69 C259.31 25.16 261.62 24.57 263.94 23.88 C267.99 22.72 272.04 22.14 276.21 21.54 C278.72 21.18 281.22 20.81 283.73 20.43 C296.04 18.68 306.86 19.21 319 22.25 C321.59 22.9 324.18 23.43 326.81 23.94 C330.54 24.75 333.65 26.14 336.98 28 C339.08 29.1 339.08 29.1 341.79 29.91 C345.42 31.14 348.78 32.76 352.19 34.5 C352.8 34.81 353.42 35.12 354.05 35.43 C356.82 36.83 359.41 38.28 362 40 C362 40.66 362 41.32 362 42 C362.89 42.23 363.77 42.45 364.69 42.69 C368.5 44.2 370.23 46.02 373 49 C373.93 49.72 374.86 50.44 375.81 51.19 C376.9 52.08 376.9 52.08 378 53 C378 53.66 378 54.32 378 55 C378.68 55.17 379.36 55.33 380.06 55.5 C385.09 58.07 389.21 62.63 391 68 C391.66 68 392.32 68 393 68 C394.44 69.71 394.44 69.71 396 71.94 C398.05 74.99 398.05 74.99 401 77 C401.22 72.68 400.63 69.13 399.5 65.01 C399 63 399 63 398.5 59.38 C398.1 56.02 398.1 56.02 397 53 C396 50 396 50 395.56 46.88 C395.08 43.54 394.4 40.44 393.56 37.19 C389.64 21.83 389.64 21.83 390 15 C394.68 15.28 396.75 17.33 399.86 20.53 C401 22 401 22 401 24 C401.66 24 402.32 24 403 24 C404.52 25.99 405.93 27.98 407.31 30.06 C408.12 31.26 408.93 32.46 409.74 33.65 C410.13 34.23 410.52 34.81 410.92 35.41 C412.23 37.34 413.61 39.24 415 41.12 C417 44 417 44 418 47 C418.76 47.74 419.53 48.49 420.31 49.25 C423.23 52.24 425.07 55.35 427 59 C427.83 60.48 428.67 61.96 429.5 63.44 C431.41 66.88 433.22 70.36 434.96 73.89 C435.73 75.45 436.52 77 437.32 78.55 C437.77 79.42 438.22 80.29 438.69 81.19 C439.31 82.38 439.31 82.38 439.95 83.61 C441.04 86.09 441.52 88.34 442 91 C442.47 92.41 442.97 93.8 443.5 95.19 C443.89 96.2 443.89 96.2 444.28 97.23 C445 99.06 445 99.06 446 101 C446.04 103 446.04 105 446 107 C446.99 107.33 447.98 107.66 449 108 C450.36 109.82 450.36 109.82 451.75 112.12 C455.84 118.5 460.38 123.27 467 127 C472.63 131.26 472.63 131.26 474 134 C474.66 134 475.32 134 476 134 C477 135.67 478 137.33 479 139 C479.77 139.76 480.55 140.51 481.35 141.29 C487.71 147.8 492.34 156.13 494.43 164.98 C494.97 167.29 494.97 167.29 497 170 C497.59 171.61 498.13 173.23 498.62 174.88 C498.89 175.72 499.15 176.56 499.41 177.43 C500 180 500 180 499.96 182.63 C499.79 185.27 499.79 185.27 502 188 C502.51 189.67 502.96 191.36 503.38 193.06 C506.16 203.63 510.36 214.25 517 223 C518 224.67 519 226.33 520 228 C521.77 230.55 523.57 233.07 525.38 235.6 C526.79 237.68 527.94 239.72 529 242 C529.66 242 530.32 242 531 242 C532.66 244.05 532.66 244.05 534.5 246.75 C535.11 247.63 535.72 248.51 536.34 249.42 C538 252 538 252 539.08 254.2 C540.19 256.37 541.76 257.72 543.51 259.38 C546.1 262.2 548.13 265.42 550.25 268.6 C551.99 270.99 553.9 272.93 556 275 C557.01 276.66 558.01 278.33 559 280 C559.56 280.56 560.11 281.11 560.69 281.69 C561.34 282.34 561.34 282.34 562 283 C562 283.66 562 284.32 562 285 C562.66 285 563.32 285 564 285 C565.45 287.02 565.45 287.02 567.12 289.81 C569.63 293.88 572.25 297.75 575.12 301.56 C581.32 309.99 587.32 320.24 587 331 C587.66 331.99 588.32 332.98 589 334 C589.26 336.88 589.26 336.88 589.27 340.36 C589.27 341.62 589.27 342.88 589.27 344.18 C589.27 344.84 589.27 345.5 589.26 346.18 C589.25 348.16 589.26 350.15 589.27 352.13 C589.26 358.81 588.94 364.62 587 371 C586.86 372.05 586.71 373.1 586.56 374.19 C585.2 381.01 580.11 386.58 574.5 390.44 C567.29 394.94 561.72 396.48 553.31 396.31 C552.47 396.32 551.63 396.32 550.76 396.32 C546.51 396.29 543.79 396.04 540 394 C536.72 392.98 533.51 392.09 530.12 391.5 C529.42 391.34 528.72 391.17 528 391 C527.67 390.34 527.34 389.68 527 389 C524.69 387.95 522.36 386.94 520 386 C520 385.34 520 384.68 520 384 C519.34 384 518.68 384 518 384 C518 383.01 518 382.02 518 381 C517.01 380.67 516.02 380.34 515 380 C512 376.56 512 376.56 512 374 C511.34 374 510.68 374 510 374 C508.97 372.35 507.98 370.68 507 369 C506.53 368.54 506.05 368.08 505.57 367.6 C503.78 365.78 502.67 363.88 501.38 361.69 C498.5 357.23 495.31 354.83 490.76 352.19 C490.18 351.8 489.6 351.41 489 351 C489 350.34 489 349.68 489 349 C487.92 348.61 487.92 348.61 486.81 348.21 C483.91 346.96 481.64 345.44 479.06 343.62 C473.79 340.21 468.78 338.52 462.72 336.97 C458.66 335.91 454.72 334.65 450.75 333.31 C449.51 332.9 448.26 332.48 446.98 332.05 C444 331 444 331 442 330 C440.42 329.89 438.84 329.84 437.26 329.83 C435.79 329.81 435.79 329.81 434.28 329.79 C433.21 329.78 432.14 329.76 431.04 329.75 C428.79 329.72 426.54 329.69 424.29 329.65 C420.74 329.61 417.18 329.56 413.63 329.52 C410.2 329.48 406.78 329.43 403.36 329.38 C402.29 329.37 401.23 329.36 400.14 329.35 C399.14 329.34 398.15 329.32 397.13 329.3 C396.25 329.29 395.38 329.28 394.49 329.27 C391.7 328.97 389.56 328.11 387 327 C386.26 326.88 385.51 326.75 384.75 326.62 C379.19 325.36 374.07 322.56 369 320 C369 319.34 369 318.68 369 318 C368.01 317.67 367.02 317.34 366 317 C366 316.34 366 315.68 366 315 C365.34 315 364.68 315 364 315 C361 310.62 361 310.62 361 308 C360.34 308 359.68 308 359 308 C356 302.38 356 302.38 356 299 C355.34 299 354.68 299 354 299 C353.72 298.38 353.44 297.77 353.15 297.13 C348.65 287.62 343.41 280.57 334.82 274.41 C333 273 333 273 332 271 C329.81 269.75 327.63 268.61 325.38 267.5 C324.77 267.19 324.17 266.88 323.54 266.57 C319.45 264.53 315.43 263.18 311 262 C309.58 261.5 308.16 260.98 306.75 260.44 C303.49 259.18 300.49 258.06 297 257.62 C279.6 255.22 261.75 246.59 248.08 235.61 C246.3 234.23 244.5 232.96 242.64 231.7 C242.04 231.3 241.44 230.89 240.82 230.48 C239.62 229.67 238.42 228.87 237.21 228.07 C235.77 227.1 234.38 226.05 233 225 C233 224.34 233 223.68 233 223 C230.02 222.3 230.02 222.3 227 222 C227 222.66 227 223.32 227 224 C227.64 224.27 228.28 224.54 228.94 224.81 C231 226 231 226 232 229 C232.66 229.33 233.32 229.66 234 230 C234.66 230.33 235.32 230.66 236 231 C236.33 231.99 236.66 232.98 237 234 C237.78 234.29 238.57 234.58 239.38 234.88 C242.72 236.31 243.23 237.89 245 241 C246.66 242.35 248.32 243.68 250 245 C250 245.66 250 246.32 250 247 C250.6 247.29 251.2 247.58 251.81 247.88 C254 249 254 249 257 251 C257 251.66 257 252.32 257 253 C257.55 253.12 258.09 253.23 258.65 253.36 C261.41 254.11 263.93 255.18 266.56 256.31 C271.59 258.45 276.65 260.35 281.82 262.11 C284 263 284 263 286 265 C288.07 265.64 288.07 265.64 290 266 C290 266.66 290 267.32 290 268 C290.68 268.1 291.36 268.21 292.06 268.31 C298.68 269.86 303.78 272.82 309 277 C309.66 277.33 310.32 277.66 311 278 C311 278.66 311 279.32 311 280 C311.62 280.27 312.24 280.54 312.88 280.81 C315 282 315 282 317 285 C314.82 287.38 312.74 288.79 309.88 290.25 C300.92 295.1 293.83 301.89 286.75 309.12 C285.59 310.3 285.59 310.3 284.4 311.5 C282.91 313.01 281.43 314.51 279.95 316.02 C278.33 317.66 276.7 319.27 275.06 320.88 C272.87 322.97 272.87 322.97 271.31 325.81 C270.88 326.53 270.45 327.26 270 328 C269.34 328 268.68 328 268 328 C267.63 328.84 267.63 328.84 267.25 329.69 C265.78 332.41 263.95 334.6 262 337 C261.38 337.93 260.76 338.86 260.12 339.81 C258.42 342.37 256.68 344.89 254.88 347.38 C254.38 348.06 253.88 348.75 253.37 349.46 C252.92 349.97 252.46 350.48 252 351 C251.34 351 250.68 351 250 351 C249.58 351.87 249.58 351.87 249.15 352.75 C242.16 366.42 242.16 366.42 237 369 C236.75 369.68 236.5 370.36 236.25 371.06 C234.48 375.21 231.76 378.46 229 382 C224.91 387.4 221.4 392.96 218.25 398.95 C217.01 400.98 215.68 402.35 214 404 C212.95 405.98 211.95 407.97 211 410 C210.34 410 209.68 410 209 410 C208.73 410.6 208.46 411.2 208.19 411.81 C207.01 413.99 205.73 415.27 204 417 C203.67 417.99 203.34 418.98 203 420 C202.34 420 201.68 420 201 420 C200.74 420.6 200.49 421.21 200.23 421.83 C198.86 424.26 197.7 425.25 195.38 426.75 C194.43 427.39 194.43 427.39 193.46 428.05 C189.89 429.43 186.82 429.14 183 429 C183.13 427.17 183.13 427.17 183.25 425.3 C184.49 407.43 184.49 407.43 181 390 C180.77 389.27 180.54 388.54 180.31 387.79 C179.18 384.24 178.01 381.01 176.31 377.69 C175 375 175 375 175 371 C174.34 371 173.68 371 173 371 C172.66 370.25 172.32 369.5 171.97 368.73 C168.83 362.09 165.38 356.58 160.54 351.06 C159 349 159 349 159 346 C158.34 346 157.68 346 157 346 C155.98 344.35 154.98 342.68 154 341 C151.73 337.96 149.32 335.03 146.94 332.08 C143.19 327.39 143.19 327.39 141.85 324.63 C141.05 322.63 141.05 322.63 138 322 C136.35 320.11 136.35 320.11 134.62 317.75 C131.96 314.21 129.22 311.06 126 308 C121 303 121 303 118.75 300.69 C112.41 294.12 112.41 294.12 105 289 C105 288.34 105 287.68 105 287 C103.92 286.66 103.92 286.66 102.81 286.31 C98.84 284.46 95.81 281.9 94.06 277.81 C92.41 275 90.03 274.79 87 274 C87 273.34 87 272.68 87 272 C86.01 272 85.02 272 84 272 C82.35 270.36 82.35 270.36 80.62 268.19 C78 264.9 75.61 263.14 72 261 C69.36 258.96 66.81 256.82 64.25 254.69 C59.33 250.63 54.43 246.75 49.03 243.34 C45.81 241.21 42.84 238.76 39.85 236.32 C38.11 234.81 38.11 234.81 36 235 C36 234.34 36 233.68 36 233 C35.01 233 34.02 233 33 233 C33 232.34 33 231.68 33 231 C32.32 230.77 31.64 230.54 30.94 230.31 C27.25 228.66 24.24 226.46 21 224.06 C15.86 220.29 10.77 216.78 5 214 C5.33 213.01 5.66 212.02 6 211 C11.08 210.83 14.31 210.99 19 213 C21.45 213.56 23.91 214.03 26.38 214.5 C32.41 215.65 38.17 217.06 44 219 C45.96 219.49 47.91 219.97 49.88 220.44 C54.76 221.64 59.35 223.12 64 225 C68.77 226.81 73.56 228.55 78.38 230.25 C84.9 232.57 91.35 235.05 97.78 237.59 C101 238.85 104.17 240.05 107.47 241.08 C110 242 110 242 111 244 C112.64 244.73 114.31 245.39 116 246 C117.67 246.67 119.33 247.33 121 248 C121 248.66 121 249.32 121 250 C121.7 250.12 122.4 250.25 123.12 250.38 C126.18 251.04 129.05 251.97 132 253 C132 253.66 132 254.32 132 255 C134.65 256.08 137.28 257.09 140 258 C140 258.66 140 259.32 140 260 C140.74 260.12 141.49 260.25 142.25 260.38 C144.8 260.95 146.73 261.74 149 263 C149 263.66 149 264.32 149 265 C149.57 265.1 150.13 265.21 150.72 265.31 C154.22 266.37 156.83 268.52 159.78 270.62 C161.91 271.94 163.56 272.56 166 273 C164.62 270.04 163.01 267.57 161 265 C158.99 262.43 157.38 259.96 156 257 C155.34 257 154.68 257 154 257 C151 253.54 151 253.54 151 251 C150.34 251 149.68 251 149 251 C149 250.34 149 249.68 149 249 C148.01 248.67 147.02 248.34 146 248 C146 247.34 146 246.68 146 246 C145.34 246 144.68 246 144 246 C142.38 244.62 142.38 244.62 141 243 C141 242.34 141 241.68 141 241 C140.01 240.67 139.02 240.34 138 240 C138 239.34 138 238.68 138 238 C137.34 238 136.68 238 136 238 C136 237.34 136 236.68 136 236 C135.42 235.75 134.85 235.5 134.25 235.25 C131.66 233.81 129.98 232.14 127.94 230 C125.66 227.63 123.75 225.84 121 224 C121 223.34 121 222.68 121 222 C120.46 221.93 119.92 221.85 119.37 221.78 C116.11 220.71 113.76 218.69 111.12 216.56 C109.95 215.64 108.78 214.72 107.61 213.81 C107.01 213.34 106.41 212.87 105.79 212.39 C94.71 203.81 82.9 196.39 71 189 C69.54 188.09 68.09 187.19 66.63 186.28 C66.01 185.89 65.38 185.51 64.74 185.11 C63.07 184.05 61.44 182.93 59.81 181.81 C57.25 180.16 54.87 179.01 52 178 C52 177.34 52 176.68 52 176 C51.26 175.88 50.52 175.76 49.76 175.63 C47.1 175.02 45.17 174.22 42.78 172.93 C42 172.51 41.22 172.09 40.41 171.66 C39.6 171.22 38.78 170.77 37.94 170.31 C36.23 169.4 34.52 168.48 32.81 167.57 C31.57 166.91 31.57 166.91 30.31 166.23 C26.45 164.18 22.55 162.23 18.63 160.3 C16.88 159.44 15.14 158.56 13.4 157.67 C8.43 155.13 3.44 152.89 -1.77 150.89 C-3.92 150.03 -5.95 149.06 -8 148 C-8.66 147.67 -9.32 147.34 -10 147 C-10 146.34 -10 145.68 -10 145 C-10.68 144.92 -11.36 144.84 -12.06 144.75 C-15.03 143.99 -17.3 142.81 -19.91 141.24 C-22.41 139.76 -24.95 138.38 -27.5 137 C-30.56 135.34 -33.61 133.67 -36.62 131.94 C-39.05 130.54 -41.49 129.17 -43.94 127.81 C-44.69 127.39 -45.45 126.97 -46.22 126.54 C-48.39 125.34 -50.57 124.15 -52.75 122.96 C-63.03 117.32 -72.56 111.2 -81.36 103.38 C-83.15 101.88 -85.01 100.57 -86.94 99.25 C-87.95 98.51 -88.96 97.76 -90 97 C-90 96.34 -90 95.68 -90 95 C-90.66 95 -91.32 95 -92 95 C-93.62 93.62 -93.62 93.62 -95 92 C-95 91.34 -95 90.68 -95 90 C-95.66 90 -96.32 90 -97 90 C-98.73 87.97 -100.34 85.94 -101.94 83.81 C-102.38 83.23 -102.82 82.66 -103.28 82.06 C-110 73.2 -110 73.2 -110 69 C-110.66 69 -111.32 69 -112 69 C-112.77 67.31 -113.54 65.63 -114.31 63.94 C-114.96 62.53 -114.96 62.53 -115.61 61.09 C-116.3 59.56 -116.3 59.56 -117 58 C-117.52 56.87 -118.03 55.74 -118.56 54.57 C-122.62 44.5 -124.19 32.82 -123 22 C-122.34 21.34 -121.68 20.68 -121 20 C-118.09 22.22 -116.05 23.93 -114 27 C-112.01 28.02 -110.01 29.01 -108 30 C-105.91 31.5 -103.84 33.04 -101.81 34.62 C-97.71 37.88 -97.71 37.88 -93 40 C-93 40.66 -93 41.32 -93 42 C-91.35 42.33 -89.7 42.66 -88 43 C-88 43.66 -88 44.32 -88 45 C-86.84 45.53 -85.68 46.06 -84.49 46.61 C-82.95 47.32 -81.41 48.04 -79.88 48.75 C-78.73 49.27 -78.73 49.27 -77.57 49.8 C-73.09 51.89 -69.1 54.23 -65 57 C-63.36 57.74 -61.69 58.44 -60 59.06 C-56.2 60.52 -52.64 62.18 -49 64 C-42.13 67.06 -35.13 69.76 -28.06 72.31 C-27.34 72.58 -26.62 72.85 -25.88 73.12 C-22.14 74.45 -18.98 75.33 -15 75 C-14.67 75.66 -14.34 76.32 -14 77 C-11.46 77.76 -8.96 78.41 -6.38 79 C-4.97 79.33 -3.56 79.67 -2.15 80 C-1.46 80.16 -0.76 80.33 -0.05 80.5 C4.06 81.51 8.1 82.71 12.12 84 C21.14 86.55 30.71 87.25 40 88.3 C43.12 88.66 46.22 89.03 49.33 89.49 C73.28 92.8 97.48 94.24 121 88 C122.33 87.66 123.67 87.33 125 87 C122.11 85.38 119.86 84.73 116.56 84.5 C112.99 84.17 110.31 83.41 107 82 C104.64 81.44 102.27 80.94 99.89 80.46 C98 80 98 80 97 79 C95.27 78.81 95.27 78.81 93.5 78.62 C88.73 78.08 84.49 76.64 80 75 C79.36 74.78 78.73 74.57 78.07 74.35 C71.78 72.14 65.91 69.07 60 66 C59.03 65.5 58.06 65 57.07 64.49 C51.3 61.44 46.08 58.09 41 54 C39.79 53.04 39.79 53.04 38.56 52.06 C37.72 51.38 36.87 50.7 36 50 C34.95 49.21 34.95 49.21 33.87 48.41 C29.24 44.93 25.59 41.54 22 37 C21.01 36.34 20.02 35.68 19 35 C19 34.34 19 33.68 19 33 C18.01 32.67 17.02 32.34 16 32 C13 28.56 13 28.56 13 26 C12.01 25.67 11.02 25.34 10 25 C8.83 23.48 8.83 23.48 7.81 21.62 C7.3 20.72 7.3 20.72 6.77 19.79 C6 18 6 18 6 15 C5.34 15 4.68 15 4 15 C1.55 9.88 0.5 5.66 0 0 Z M351 134 C351.54 137.79 353.12 139.55 356 142 C356.66 142 357.32 142 358 142 C358.29 142.76 358.58 143.53 358.88 144.31 C359.96 147.15 359.96 147.15 362 150 C362.66 150 363.32 150 364 150 C364 150.99 364 151.98 364 153 C365.62 154.71 367.3 156.37 369 158 C369.99 159.18 370.97 160.37 371.94 161.56 C374.61 164.73 377.48 166.78 381 169 C382.33 170.33 383.67 171.67 385 173 C388.67 175.53 388.67 175.53 393 176 C393 176.66 393 177.32 393 178 C393.57 178.19 394.13 178.39 394.71 178.59 C395.45 178.85 396.18 179.11 396.94 179.38 C397.67 179.63 398.4 179.89 399.15 180.15 C401 181 401 181 402 183 C406.46 185.14 411.02 186.72 415.72 188.24 C419.19 189.4 422.59 190.71 426 192 C427.49 192.5 427.49 192.5 429 193 C429.67 194.33 430.34 195.66 431 197 C432.55 198.69 434.17 200.33 435.81 201.94 C436.66 202.77 437.52 203.61 438.39 204.46 C439.25 205.3 440.11 206.14 441 207 C441.87 207.87 442.74 208.75 443.64 209.65 C452.64 218.61 460.33 220.02 472.79 220.1 C474.73 220.09 476.68 220.08 478.62 220.06 C479.63 220.06 480.63 220.05 481.67 220.05 C484.11 220.04 486.56 220.02 489 220 C487.42 214.45 485.79 209.1 483.31 203.88 C482.88 202.94 482.44 202.01 481.99 201.05 C481.66 200.38 481.34 199.7 481 199 C480.34 199 479.68 199 479 199 C478.81 198.3 478.63 197.6 478.44 196.88 C474.89 189.78 468.33 186.97 461.26 184.08 C452.92 181.32 445.02 180.66 436.29 180.43 C431.18 180.25 426.92 179.48 422 178 C418.43 177.66 414.88 177.5 411.3 177.34 C408.13 177.01 405.87 176.34 403 175 C402.07 174.57 402.07 174.57 401.12 174.12 C398.63 172.8 396.18 171.42 393.73 170 C392.27 169.16 390.79 168.33 389.31 167.5 C386.82 165.89 385.07 164.13 383 162 C380.88 160.18 378.75 158.38 376.61 156.59 C376.08 156.06 375.55 155.54 375 155 C375 154.34 375 153.68 375 153 C374.38 152.92 373.76 152.84 373.12 152.75 C371 152 371 152 370.11 150.19 C368.79 147.59 367.25 146.16 365.06 144.25 C364.37 143.64 363.68 143.02 362.97 142.39 C360.99 140.71 360.99 140.71 358 141 C357.73 140.4 357.46 139.8 357.19 139.19 C356 137 354.9 135.59 353 134 C352.34 134 351.68 134 351 134 Z " fill="#FAFCFC" transform="translate(675,277)"/>
<path d="M0 0 C-1.35 3.04 -2.82 5 -5.25 7.25 C-8.53 10.4 -11.15 13.76 -13.74 17.5 C-14.15 17.99 -14.57 18.49 -15 19 C-15.66 19 -16.32 19 -17 19 C-17.33 19.99 -17.66 20.98 -18 22 C-18.66 22 -19.32 22 -20 22 C-20.27 22.64 -20.54 23.28 -20.81 23.94 C-22 26 -22 26 -25 27 C-25.33 27.66 -25.66 28.32 -26 29 C-26.33 29.66 -26.66 30.32 -27 31 C-27.99 31.33 -28.98 31.66 -30 32 C-30 32.66 -30 33.32 -30 34 C-31.07 34.63 -31.07 34.63 -32.16 35.27 C-36.04 37.63 -38.86 40.83 -41.89 44.15 C-44.84 47.24 -46.78 48.47 -51 49 C-51.68 50.32 -52.35 51.66 -53 53 C-54.96 54.38 -56.97 55.71 -59 57 C-60.42 58.27 -60.42 58.27 -61.88 59.56 C-65.53 62.41 -68.65 63.48 -73 65 C-73.66 65.66 -74.32 66.32 -75 67 C-75.68 67.16 -76.36 67.33 -77.06 67.5 C-77.7 67.66 -78.34 67.83 -79 68 C-79.33 68.66 -79.66 69.32 -80 70 C-81.33 70.35 -82.66 70.68 -84 71 C-85.24 71.73 -86.44 72.5 -87.62 73.31 C-92.81 76.65 -98.48 79.32 -104.56 80.49 C-106.97 80.99 -108.7 81.75 -110.88 82.88 C-116.28 85.4 -121.91 86.29 -127.74 87.29 C-131.12 87.82 -131.12 87.82 -134 90 C-136.23 90.38 -136.23 90.38 -138.62 90.56 C-141.61 90.59 -141.61 90.59 -144 92 C-147.34 92.24 -150.67 92.4 -154.01 92.52 C-158.1 92.65 -158.1 92.65 -161.89 94.01 C-164.58 95.27 -166.61 95.25 -169.58 95.24 C-170.69 95.25 -171.81 95.25 -172.96 95.25 C-174.17 95.25 -175.37 95.24 -176.61 95.23 C-177.86 95.23 -179.1 95.23 -180.38 95.23 C-183.68 95.23 -186.99 95.21 -190.29 95.2 C-193.63 95.18 -196.98 95.19 -200.32 95.19 C-202.88 95.18 -205.43 95.17 -207.99 95.17 C-209.19 95.17 -210.38 95.17 -211.62 95.16 C-226.92 95.08 -226.92 95.08 -229 93 C-231.16 92.79 -233.33 92.63 -235.5 92.5 C-241.89 92.11 -241.89 92.11 -243 91 C-245.97 90.71 -248.94 90.55 -251.92 90.38 C-255 90 -255 90 -257.33 89.06 C-261.12 87.56 -264.98 87.09 -269 86.5 C-273.95 85.77 -278.38 85.02 -283 83 C-284.55 82.61 -286.12 82.25 -287.69 81.94 C-290.02 81.46 -291.86 81.07 -294 80 C-295.66 79.65 -297.33 79.32 -299 79 C-304.85 77.55 -310.55 75.89 -316.16 73.69 C-319.05 72.61 -322.03 71.84 -325 71 C-326.68 70.36 -328.35 69.7 -330 69 C-330 68.34 -330 67.68 -330 67 C-330.93 67.04 -331.86 67.08 -332.81 67.12 C-336 67 -336 67 -339 65 C-340.65 64.5 -342.31 64.01 -343.97 63.56 C-349.97 61.9 -355.43 59.78 -361 57 C-362.43 56.5 -363.87 56.02 -365.31 55.56 C-368.48 54.55 -371.48 53.39 -374.5 52 C-378.11 50.35 -381.73 49.05 -385.51 47.84 C-388.42 46.86 -391.27 45.75 -394.12 44.62 C-402.42 41.4 -410.86 38.68 -419.32 35.92 C-422 35 -422 35 -424 34 C-425.54 33.74 -427.09 33.51 -428.65 33.32 C-429.57 33.19 -430.49 33.07 -431.45 32.94 C-433.39 32.69 -435.34 32.44 -437.28 32.19 C-438.21 32.07 -439.13 31.94 -440.09 31.82 C-440.93 31.71 -441.78 31.6 -442.65 31.49 C-445.06 30.99 -446.82 30.12 -449 29 C-451.22 28.74 -453.45 28.56 -455.69 28.44 C-461.9 28.1 -461.9 28.1 -463 27 C-465.56 26.89 -468.09 26.84 -470.66 26.83 C-471.43 26.83 -472.21 26.83 -473.01 26.82 C-474.66 26.82 -476.31 26.81 -477.96 26.81 C-480.46 26.81 -482.96 26.79 -485.46 26.78 C-487.07 26.77 -488.67 26.77 -490.28 26.77 C-491.39 26.76 -491.39 26.76 -492.52 26.75 C-500.17 26.78 -507.09 28.49 -514.18 31.29 C-515.72 31.89 -517.3 32.42 -518.88 32.94 C-528.59 36.24 -537.35 40.5 -546 46 C-548.75 47.71 -550.93 48.98 -554 50 C-554 50.66 -554 51.32 -554 52 C-555.79 53.33 -555.79 53.33 -558.19 54.81 C-561.06 56.65 -563.59 58.4 -565.94 60.88 C-566.62 61.58 -567.3 62.28 -568 63 C-568.66 63 -569.32 63 -570 63 C-570 63.66 -570 64.32 -570 65 C-571.61 66.33 -571.61 66.33 -573.75 67.81 C-577.11 70.25 -579.51 72.65 -582 76 C-583.65 77.69 -585.31 79.36 -587 81 C-588.11 79.36 -588.11 79.36 -589 77 C-588.39 74.24 -588.39 74.24 -587.25 71.31 C-586.88 70.34 -586.52 69.37 -586.14 68.36 C-585 66 -585 66 -583 65 C-580.59 62.28 -578.44 59.76 -576.62 56.62 C-571.95 49.07 -565.12 41.79 -557 38 C-557 37.34 -557 36.68 -557 36 C-555.36 34.95 -553.69 33.96 -552 33 C-548.97 30.96 -548.97 30.96 -547 28 C-545.68 28 -544.36 28 -543 28 C-543 27.34 -543 26.68 -543 26 C-536.25 22.12 -536.25 22.12 -534 21 C-533.13 20.54 -533.13 20.54 -532.25 20.06 C-530 19 -530 19 -526.81 18 C-523.87 17.32 -523.87 17.32 -523 15 C-522.01 15 -521.02 15 -520 15 C-520 14.34 -520 13.68 -520 13 C-519.44 12.88 -518.89 12.75 -518.31 12.62 C-515.96 12.05 -515.96 12.05 -513.69 11 C-510.48 9.81 -507.39 9.4 -504 9 C-504 8.34 -504 7.68 -504 7 C-502.93 6.91 -502.93 6.91 -501.85 6.82 C-500.47 6.69 -500.47 6.69 -499.06 6.56 C-498.15 6.48 -497.23 6.4 -496.29 6.32 C-494.04 6.24 -494.04 6.24 -493 5 C-490.14 4.62 -487.3 4.29 -484.44 4 C-482.85 3.83 -481.27 3.67 -479.68 3.5 C-478.51 3.38 -478.51 3.38 -477.31 3.26 C-475.12 3.01 -472.94 2.7 -470.76 2.39 C-467.29 2.03 -464.77 2.15 -461.38 2.81 C-454.06 4.09 -446.73 4.71 -439.34 5.3 C-438.42 5.38 -437.5 5.46 -436.55 5.54 C-435.72 5.6 -434.89 5.67 -434.04 5.73 C-432 6 -432 6 -430 7 C-428.42 7.18 -426.84 7.32 -425.25 7.44 C-421.22 7.8 -417.83 8.66 -414 10 C-413.15 10 -412.31 10 -411.44 10 C-408.51 10 -406.66 10.8 -404 12 C-400.17 13.62 -396.32 14.82 -392.31 15.94 C-387.25 17.36 -382.21 18.83 -377.18 20.39 C-374.81 21.05 -372.43 21.54 -370 22 C-370 22.66 -370 23.32 -370 24 C-368.67 24.12 -368.67 24.12 -367.31 24.25 C-361.36 25.09 -355.7 27.15 -350 29 C-349.16 29.27 -348.31 29.54 -347.44 29.82 C-343.89 30.99 -340.37 32.23 -336.88 33.56 C-333.3 34.92 -329.68 35.97 -326 37 C-324.46 37.54 -322.92 38.08 -321.38 38.62 C-318.13 39.73 -315.46 40.33 -312 40 C-312 40.66 -312 41.32 -312 42 C-307.68 43.5 -303.39 44.96 -298.94 46 C-295.67 46.79 -292.59 47.87 -289.45 49.08 C-280.93 52.27 -272.26 55.02 -263.45 57.32 C-261.22 57.94 -259.06 58.66 -256.88 59.44 C-246.67 62.92 -235.87 65.04 -225.22 66.61 C-223 67 -223 67 -221 68 C-218.54 68.37 -216.09 68.7 -213.62 69 C-206.45 69.88 -206.45 69.88 -204.07 70.52 C-201.78 71.05 -199.68 71.18 -197.33 71.25 C-196.44 71.28 -195.54 71.31 -194.62 71.35 C-192.77 71.41 -190.91 71.46 -189.06 71.52 C-183.13 71.74 -177.75 72.55 -172 74 C-171.67 73.34 -171.34 72.68 -171 72 C-171 72.66 -171 73.32 -171 74 C-166.56 73.47 -162.11 72.94 -157.67 72.4 C-156.17 72.22 -154.66 72.04 -153.16 71.86 C-134.83 70.1 -134.83 70.1 -117 66 C-115.27 65.5 -113.54 65 -111.81 64.5 C-109.41 63.8 -107.23 63.11 -104.99 61.99 C-102.8 60.9 -100.68 60.27 -98.31 59.62 C-94.01 58.38 -90.05 56.79 -86.01 54.87 C-84.02 54.01 -82.11 53.46 -80 53 C-80 52.34 -80 51.68 -80 51 C-78.95 50.92 -77.9 50.84 -76.81 50.75 C-72.65 49.93 -71.18 48.68 -68 46 C-66.34 45.62 -64.68 45.28 -63 45 C-62.67 44.34 -62.34 43.68 -62 43 C-60.15 42.15 -60.15 42.15 -57.94 41.38 C-57.2 41.11 -56.47 40.85 -55.71 40.59 C-55.15 40.39 -54.58 40.2 -54 40 C-54 39.34 -54 38.68 -54 38 C-52.51 37.5 -52.51 37.5 -51 37 C-50.34 37.33 -49.68 37.66 -49 38 C-49 37.34 -49 36.68 -49 36 C-43.99 32.24 -43.99 32.24 -40.69 31.44 C-40.13 31.29 -39.57 31.15 -39 31 C-38.67 30.01 -38.34 29.02 -38 28 C-36.21 26.64 -36.21 26.64 -33.94 25.25 C-29.8 22.62 -26.28 19.69 -22.73 16.32 C-21 15 -21 15 -18 15 C-17.67 14.01 -17.34 13.02 -17 12 C-15.51 11.5 -15.51 11.5 -14 11 C-13.71 10.38 -13.42 9.76 -13.12 9.12 C-11.62 6.28 -9.79 5.56 -7 4 C-6.11 3.28 -5.23 2.56 -4.31 1.81 C-2 0 -2 0 0 0 Z " fill="#FAFCFC" transform="translate(604,542)"/>
<path d="M0 0 C11.41 -0.09 22.83 -0.16 34.24 -0.21 C39.54 -0.23 44.84 -0.26 50.15 -0.3 C55.27 -0.35 60.39 -0.37 65.51 -0.38 C67.46 -0.39 69.41 -0.4 71.35 -0.42 C94.64 -0.67 94.64 -0.67 101.98 5.72 C108.79 12.83 108.34 21.47 108.32 30.74 C108.31 32.93 108.34 35.11 108.36 37.3 C108.36 38.71 108.36 40.12 108.36 41.53 C108.37 42.79 108.37 44.06 108.37 45.36 C107.78 51.14 105.8 55.78 101.56 59.88 C100.99 60.45 100.41 61.02 99.82 61.62 C97.84 63.12 96.41 63.53 94 64 C93.01 64.5 93.01 64.5 92 65 C90.33 65.15 88.66 65.25 86.99 65.32 C86.01 65.36 85.02 65.4 84 65.44 C82.97 65.48 81.94 65.52 80.88 65.56 C79.31 65.63 79.31 65.63 77.72 65.69 C75.15 65.8 72.57 65.9 70 66 C70.93 67.1 71.87 68.2 72.8 69.29 C73.32 69.9 73.84 70.52 74.38 71.15 C77.62 74.85 80.89 78.26 85 81 C85.33 81.33 85.66 81.66 86 82 C89.59 82.03 93.16 81.97 96.74 81.87 C102.68 81.79 102.68 81.79 106 84 C106.66 84.33 107.32 84.66 108 85 C108 91.93 108 98.86 108 106 C80.89 109.54 80.89 109.54 72.31 103.82 C65.7 98.72 60.29 92.22 55.17 85.68 C52.94 82.92 50.53 80.48 48 78 C47.07 76.97 46.15 75.94 45.24 74.89 C40 68.76 40 68.76 33.03 65.19 C30.53 65.19 28.41 65.33 26 66 C23.89 68.11 24.74 72.71 24.68 75.63 C24.66 76.49 24.64 77.36 24.62 78.25 C24.56 81.02 24.5 83.79 24.44 86.56 C24.39 88.44 24.35 90.31 24.31 92.19 C24.2 96.79 24.1 101.4 24 106 C16.41 106 8.82 106 1 106 C-0.16 103.69 -0.12 102.38 -0.12 99.81 C-0.12 98.49 -0.12 98.49 -0.12 97.15 C-0.12 96.19 -0.12 95.22 -0.11 94.23 C-0.11 93.21 -0.11 92.2 -0.11 91.15 C-0.11 87.79 -0.11 84.42 -0.1 81.05 C-0.1 78.73 -0.09 76.4 -0.09 74.07 C-0.09 67.93 -0.08 61.79 -0.07 55.65 C-0.06 49.39 -0.05 43.13 -0.05 36.87 C-0.04 24.58 -0.02 12.29 0 0 Z M25 23 C23.82 26.53 23.87 29.4 23.88 33.12 C23.87 34.39 23.87 35.65 23.87 36.95 C23.65 39.88 23.65 39.88 25 41 C26.87 41.09 28.75 41.12 30.62 41.11 C31.82 41.11 33.02 41.11 34.26 41.11 C36.22 41.11 36.22 41.11 38.22 41.1 C39.57 41.1 40.91 41.09 42.25 41.09 C45.8 41.09 49.34 41.08 52.88 41.07 C56.5 41.06 60.11 41.05 63.72 41.05 C70.81 41.04 77.91 41.02 85 41 C85 35.06 85 29.12 85 23 C65.2 23 45.4 23 25 23 Z " fill="#FAFCFC" transform="translate(672,769)"/>
<path d="M0 0 C3.35 0.53 6.66 0.79 10.04 1 C14.76 1.32 18.69 2.07 23.17 3.5 C24.3 3.63 25.44 3.75 26.61 3.88 C29.67 4.42 31.17 4.9 33.79 6.32 C37.25 8.18 40.64 9.3 44.42 10.38 C51.12 12.36 57 15.25 63.17 18.5 C65.75 19.81 68.33 21.09 70.92 22.38 C72.12 22.98 73.32 23.58 74.53 24.18 C75.4 24.62 76.27 25.06 77.17 25.5 C77.17 26.16 77.17 26.82 77.17 27.5 C78.82 27.83 80.47 28.16 82.17 28.5 C82.17 29.16 82.17 29.82 82.17 30.5 C83.14 30.77 84.11 31.04 85.11 31.32 C86.12 31.71 87.13 32.1 88.17 32.5 C88.5 33.49 88.83 34.48 89.17 35.5 C91.03 36.11 91.03 36.11 93.17 36.5 C94.52 37.14 95.85 37.8 97.17 38.5 C97.17 39.16 97.17 39.82 97.17 40.5 C98.16 40.83 99.15 41.16 100.17 41.5 C99.51 42.16 98.85 42.82 98.17 43.5 C97.55 43.11 96.93 42.72 96.29 42.32 C89.07 38.13 81.9 34.9 73.93 32.4 C71.29 31.54 68.73 30.56 66.17 29.5 C66.17 28.84 66.17 28.18 66.17 27.5 C64.78 27.57 64.78 27.57 63.36 27.63 C60.17 27.5 60.17 27.5 57.17 25.5 C55.2 24.94 55.2 24.94 53.04 24.57 C49.82 23.9 46.77 23.09 43.67 22 C39.8 20.65 35.94 19.73 31.92 18.93 C30.17 18.5 30.17 18.5 29.17 17.5 C27.36 17.29 25.55 17.14 23.73 17 C18.39 16.61 18.39 16.61 16.17 15.5 C13.53 15.37 10.93 15.29 8.29 15.27 C7.5 15.26 6.7 15.25 5.88 15.24 C4.17 15.23 2.47 15.22 0.77 15.21 C-0.94 15.2 -2.64 15.18 -4.35 15.15 C-15.36 14.95 -25.34 15.84 -36.02 18.58 C-40.04 19.55 -43.87 20.04 -47.98 20.23 C-50.17 20.42 -50.17 20.42 -52.83 22.5 C-54.61 22.99 -56.41 23.42 -58.21 23.82 C-70.22 26.73 -81.01 31.91 -91.94 37.54 C-94.7 38.95 -97.49 40.32 -100.27 41.69 C-107.7 45.41 -115.13 49.28 -121.99 53.98 C-122.78 54.53 -123.58 55.07 -124.39 55.63 C-125.51 56.41 -125.51 56.41 -126.65 57.2 C-128.77 58.47 -130.45 58.95 -132.83 59.5 C-133.95 60.4 -133.95 60.4 -135.08 61.32 C-137.36 63.12 -139.13 64.22 -141.71 65.44 C-144.46 66.75 -146.84 68.16 -149.27 70 C-153.6 73.22 -158.56 75.71 -163.82 76.99 C-166.14 77.58 -168.16 78.49 -170.33 79.5 C-173.16 80.82 -175.8 81.79 -178.83 82.5 C-180.11 82.94 -181.38 83.4 -182.64 83.88 C-183.34 84.14 -184.04 84.4 -184.75 84.68 C-186.66 85.43 -188.53 86.28 -190.39 87.13 C-193.93 88.54 -197.07 89.01 -200.83 89.5 C-202.17 90.17 -203.5 90.84 -204.83 91.5 C-211.18 93.26 -217.62 93.81 -224.17 94.16 C-226.77 94.33 -226.77 94.33 -228.57 95.46 C-239.58 100.57 -255.41 98.81 -267.24 98.76 C-270.33 98.75 -273.41 98.76 -276.5 98.78 C-306.03 98.8 -306.03 98.8 -313.83 94.5 C-316.28 94.13 -316.28 94.13 -318.83 94 C-322.41 93.79 -324.67 93.13 -327.83 91.5 C-329.38 91.53 -329.38 91.53 -330.96 91.57 C-336.52 91.48 -341.85 90.01 -346.83 87.49 C-349.06 86.39 -351.25 85.73 -353.64 85.07 C-360.08 83.19 -365.84 80.5 -371.83 77.5 C-372.74 77.15 -373.65 76.8 -374.58 76.44 C-376.83 75.5 -376.83 75.5 -378.83 73.5 C-380.15 72.81 -381.49 72.15 -382.83 71.5 C-384.82 70.39 -386.8 69.27 -388.77 68.13 C-389.79 67.54 -390.81 66.96 -391.86 66.36 C-394.72 64.57 -397.32 62.75 -399.83 60.5 C-399.83 59.84 -399.83 59.18 -399.83 58.5 C-393.64 59.91 -387.72 62.44 -382.14 65.44 C-373.06 70.12 -362.61 72.66 -352.83 75.5 C-351.04 76.06 -351.04 76.06 -349.21 76.63 C-346.58 77.31 -344.2 77.75 -341.52 78.07 C-337.83 78.5 -337.83 78.5 -335.83 79.5 C-334.47 79.71 -333.1 79.87 -331.73 80 C-330.91 80.09 -330.09 80.17 -329.24 80.25 C-328.39 80.34 -327.53 80.42 -326.64 80.5 C-324.96 80.67 -323.28 80.84 -321.6 81 C-320.85 81.08 -320.11 81.15 -319.34 81.22 C-317.49 81.43 -315.66 81.71 -313.83 82.03 C-308.29 82.83 -302.7 82.63 -297.12 82.6 C-295.91 82.6 -294.7 82.6 -293.45 82.6 C-289.6 82.59 -285.75 82.58 -281.89 82.57 C-279.28 82.56 -276.66 82.56 -274.04 82.55 C-267.64 82.54 -261.24 82.53 -254.83 82.5 C-254.5 81.84 -254.17 81.18 -253.83 80.5 C-251.54 80.16 -251.54 80.16 -248.64 80 C-244.37 79.69 -240.88 78.97 -236.83 77.5 C-234.5 77.16 -232.17 76.83 -229.83 76.5 C-227.49 75.86 -225.16 75.19 -222.83 74.5 C-220.85 74.02 -218.87 73.54 -216.89 73.07 C-212.04 71.86 -207.46 70.4 -202.83 68.5 C-201.04 67.77 -199.25 67.04 -197.46 66.32 C-196.62 65.97 -195.79 65.63 -194.93 65.27 C-192.83 64.5 -192.83 64.5 -190.83 64.5 C-190.5 63.84 -190.17 63.18 -189.83 62.5 C-188.17 62.16 -186.5 61.83 -184.83 61.5 C-183.08 60.7 -181.35 59.85 -179.64 58.94 C-175.04 56.5 -175.04 56.5 -172.83 56.5 C-172.5 55.84 -172.17 55.18 -171.83 54.5 C-170.18 54.5 -168.53 54.5 -166.83 54.5 C-166.83 53.84 -166.83 53.18 -166.83 52.5 C-165.9 52.22 -164.98 51.93 -164.02 51.63 C-160.73 50.62 -160.73 50.62 -157.83 48.5 C-155.77 47.32 -155.77 47.32 -153.83 46.5 C-153.17 46.83 -152.51 47.16 -151.83 47.5 C-151.17 46.18 -150.51 44.86 -149.83 43.5 C-148.84 43.83 -147.85 44.16 -146.83 44.5 C-146.83 43.84 -146.83 43.18 -146.83 42.5 C-146.23 42.4 -145.64 42.3 -145.02 42.19 C-142.5 41.4 -141.64 40.38 -139.83 38.5 C-138.51 37.81 -137.18 37.15 -135.83 36.5 C-135.17 36.16 -134.51 35.82 -133.83 35.47 C-133.17 35.13 -132.51 34.79 -131.83 34.44 C-131.17 34.1 -130.51 33.76 -129.83 33.41 C-127.85 32.51 -125.96 31.96 -123.83 31.5 C-124.16 30.84 -124.49 30.18 -124.83 29.5 C-123.92 29.42 -123.02 29.34 -122.08 29.25 C-118.36 28.4 -117.42 27.17 -114.83 24.5 C-113.51 24.5 -112.19 24.5 -110.83 24.5 C-110.83 23.84 -110.83 23.18 -110.83 22.5 C-91.43 13.5 -91.43 13.5 -86.83 13.5 C-86.83 12.84 -86.83 12.18 -86.83 11.5 C-82.5 10.2 -78.32 9.16 -73.83 8.5 C-73.83 7.84 -73.83 7.18 -73.83 6.5 C-73.2 6.47 -72.57 6.43 -71.93 6.39 C-67.7 6.07 -63.88 5.71 -59.96 4.07 C-54.74 1.93 -49.39 1.25 -43.83 0.5 C-43.16 0.41 -42.48 0.32 -41.79 0.23 C-27.7 -1.65 -14.09 -2.5 0 0 Z " fill="#FAFCFC" transform="translate(670.83203125,453.49609375)"/>
<path d="M0 0 C0.74 -0.01 1.47 -0.01 2.23 -0.02 C4.67 -0.04 7.1 -0.05 9.54 -0.06 C10.37 -0.07 11.21 -0.07 12.07 -0.07 C16.49 -0.09 20.91 -0.11 25.33 -0.12 C29.87 -0.13 34.42 -0.16 38.97 -0.2 C42.48 -0.23 45.99 -0.24 49.5 -0.24 C51.18 -0.25 52.86 -0.26 54.53 -0.28 C72.51 -0.46 72.51 -0.46 78.62 4.18 C80.69 6.71 82.25 9.21 83.62 12.18 C83.97 12.87 84.31 13.55 84.67 14.26 C85.94 18.15 85.88 21.87 85.85 25.91 C85.85 26.78 85.85 27.65 85.85 28.55 C85.85 31.41 85.83 34.27 85.82 37.13 C85.81 39.12 85.81 41.11 85.81 43.1 C85.8 48.33 85.78 53.55 85.76 58.78 C85.74 64.11 85.73 69.45 85.72 74.78 C85.7 85.25 85.66 95.71 85.62 106.18 C78.03 106.18 70.44 106.18 62.62 106.18 C60.98 102.9 61.5 99.27 61.52 95.67 C61.52 94.92 61.52 94.18 61.53 93.41 C61.53 90.63 61.54 87.84 61.56 85.05 C61.58 78.82 61.6 72.59 61.62 66.18 C42.15 66.18 22.68 66.18 2.62 66.18 C2.29 79.38 1.96 92.58 1.62 106.18 C-5.97 106.18 -13.56 106.18 -21.38 106.18 C-22.92 103.1 -22.53 99.85 -22.52 96.47 C-22.53 95.68 -22.53 94.88 -22.54 94.06 C-22.54 91.42 -22.55 88.78 -22.55 86.14 C-22.55 84.31 -22.55 82.47 -22.56 80.63 C-22.56 76.77 -22.57 72.92 -22.56 69.06 C-22.56 64.13 -22.58 59.21 -22.6 54.28 C-22.61 50.48 -22.61 46.68 -22.61 42.88 C-22.61 41.07 -22.61 39.25 -22.62 37.44 C-22.63 34.89 -22.63 32.34 -22.62 29.79 C-22.63 29.05 -22.63 28.3 -22.64 27.54 C-22.6 20.46 -21.82 12.93 -17.38 7.18 C-15.74 5.81 -14.08 4.47 -12.38 3.18 C-12.05 2.52 -11.72 1.86 -11.38 1.18 C-7.74 -0.22 -3.84 0.01 0 0 Z M2.62 23.18 C1.1 26.23 1.48 29.4 1.5 32.74 C1.49 33.44 1.49 34.14 1.48 34.85 C1.18 38.3 1.18 38.3 2.62 41.18 C4.49 41.27 6.37 41.29 8.24 41.29 C9.44 41.29 10.64 41.29 11.88 41.29 C13.84 41.28 13.84 41.28 15.84 41.27 C17.19 41.27 18.53 41.27 19.87 41.27 C23.42 41.27 26.96 41.26 30.5 41.25 C34.12 41.24 37.73 41.23 41.34 41.23 C48.43 41.22 55.53 41.2 62.62 41.18 C62.62 35.24 62.62 29.3 62.62 23.18 C42.82 23.18 23.02 23.18 2.62 23.18 Z " fill="#FAFCFC" transform="translate(520.379638671875,768.822998046875)"/>
<path d="M0 0 C1.49 0 2.99 0 4.48 0 C7.59 0 10.7 0.01 13.82 0.02 C17.79 0.04 21.77 0.05 25.74 0.04 C28.82 0.04 31.89 0.05 34.97 0.06 C36.44 0.06 37.9 0.06 39.37 0.06 C41.42 0.07 43.47 0.07 45.52 0.09 C46.68 0.09 47.84 0.09 49.04 0.1 C60.58 0.56 60.58 0.56 63.89 3.61 C64.39 4.19 64.88 4.76 65.39 5.36 C65.89 5.91 66.38 6.47 66.89 7.05 C71.04 13.07 71.83 18.16 71.74 25.29 C71.74 26.61 71.74 26.61 71.74 27.95 C71.73 30.83 71.71 33.72 71.69 36.6 C71.68 38.61 71.68 40.62 71.67 42.63 C71.66 47.89 71.63 53.16 71.6 58.43 C71.57 63.81 71.56 69.2 71.54 74.58 C71.51 85.13 71.46 95.68 71.39 106.23 C64.13 106.23 56.87 106.23 49.39 106.23 C47.76 102.96 48.15 99.32 48.08 95.72 C48.06 94.88 48.04 94.04 48.02 93.18 C47.95 90.49 47.89 87.8 47.83 85.11 C47.79 83.28 47.75 81.46 47.7 79.64 C47.59 75.17 47.49 70.7 47.39 66.23 C39.85 66.21 32.3 66.19 24.76 66.18 C21.26 66.17 17.75 66.17 14.25 66.16 C10.23 66.14 6.2 66.14 2.18 66.13 C0.28 66.13 0.28 66.13 -1.65 66.12 C-3.39 66.12 -3.39 66.12 -5.17 66.12 C-6.2 66.11 -7.22 66.11 -8.28 66.11 C-10.57 65.97 -10.57 65.97 -11.61 67.23 C-11.77 70.11 -11.87 72.97 -11.92 75.86 C-11.94 76.72 -11.96 77.59 -11.98 78.48 C-12.05 81.25 -12.11 84.02 -12.17 86.79 C-12.21 88.67 -12.25 90.54 -12.3 92.42 C-12.41 97.02 -12.51 101.63 -12.61 106.23 C-20.2 106.23 -27.79 106.23 -35.61 106.23 C-37.16 103.13 -36.76 99.85 -36.77 96.45 C-36.77 95.25 -36.77 95.25 -36.78 94.02 C-36.8 91.35 -36.8 88.68 -36.81 86.01 C-36.81 84.16 -36.82 82.3 -36.83 80.44 C-36.84 76.54 -36.84 72.64 -36.85 68.74 C-36.85 63.76 -36.88 58.78 -36.9 53.8 C-36.92 49.96 -36.93 46.12 -36.93 42.28 C-36.93 40.45 -36.94 38.62 -36.95 36.78 C-37.09 15.71 -37.09 15.71 -31.91 7.57 C-31.3 6.97 -30.68 6.36 -30.04 5.73 C-29.44 5.1 -28.84 4.47 -28.23 3.82 C-20.02 -1.17 -9.28 -0.05 0 0 Z M-11.61 23.23 C-12.78 26.76 -12.74 29.63 -12.73 33.36 C-12.73 34.62 -12.74 35.88 -12.74 37.18 C-12.96 40.11 -12.96 40.11 -11.61 41.23 C-9.73 41.32 -7.86 41.35 -5.98 41.34 C-4.78 41.34 -3.58 41.34 -2.34 41.34 C-0.38 41.34 -0.38 41.34 1.62 41.33 C2.96 41.33 4.3 41.32 5.65 41.32 C9.19 41.32 12.73 41.31 16.28 41.3 C19.89 41.29 23.5 41.28 27.12 41.28 C34.21 41.27 41.3 41.25 48.39 41.23 C48.39 35.29 48.39 29.35 48.39 23.23 C28.59 23.23 8.79 23.23 -11.61 23.23 Z " fill="#FAFCFC" transform="translate(1056.60546875,768.76953125)"/>
<path d="M0 0 C1.49 -0 2.99 -0.01 4.48 -0.01 C7.6 -0.02 10.72 -0.02 13.84 -0.02 C17.82 -0.02 21.8 -0.03 25.79 -0.05 C28.87 -0.06 31.95 -0.06 35.03 -0.06 C36.5 -0.06 37.97 -0.07 39.43 -0.07 C41.49 -0.08 43.54 -0.08 45.6 -0.07 C47.35 -0.08 47.35 -0.08 49.13 -0.08 C57.29 0.52 61.99 3.42 67.49 9.17 C71.04 14.2 71.62 18.11 71.64 24.21 C71.64 24.92 71.64 25.63 71.65 26.37 C71.66 28.72 71.66 31.08 71.66 33.44 C71.66 35.08 71.67 36.72 71.67 38.36 C71.68 41.8 71.68 45.24 71.68 48.68 C71.68 53.08 71.69 57.48 71.71 61.89 C71.72 65.27 71.72 68.66 71.72 72.05 C71.72 73.68 71.73 75.3 71.73 76.92 C71.74 79.19 71.74 81.47 71.74 83.74 C71.74 85.03 71.74 86.33 71.74 87.66 C71.49 91.16 70.76 93.91 69.49 97.17 C68.83 97.17 68.17 97.17 67.49 97.17 C67.29 97.93 67.08 98.69 66.87 99.48 C65.07 103 63.06 103.65 59.49 105.17 C59.16 105.5 58.83 105.83 58.49 106.17 C56 106.28 53.53 106.34 51.04 106.34 C49.87 106.35 49.87 106.35 48.67 106.36 C46.08 106.38 43.48 106.4 40.89 106.41 C39.56 106.41 39.56 106.41 38.2 106.42 C33.52 106.44 28.83 106.45 24.14 106.46 C19.3 106.47 14.46 106.51 9.62 106.55 C5.89 106.57 2.17 106.58 -1.55 106.59 C-3.33 106.59 -5.12 106.6 -6.9 106.62 C-9.4 106.65 -11.91 106.64 -14.41 106.64 C-15.14 106.65 -15.88 106.66 -16.63 106.68 C-21.73 106.63 -24.56 105.34 -28.51 102.17 C-36.64 93.56 -37.1 85.16 -37 73.93 C-37 72.45 -37.01 70.96 -37.01 69.48 C-37.01 66.38 -37 63.27 -36.97 60.17 C-36.95 56.23 -36.95 52.28 -36.96 48.34 C-36.97 45.27 -36.96 42.21 -36.95 39.14 C-36.94 37.69 -36.94 36.24 -36.95 34.79 C-36.98 14.32 -36.98 14.32 -31.56 6.28 C-30.84 5.69 -30.12 5.09 -29.38 4.48 C-28.68 3.86 -27.98 3.24 -27.25 2.59 C-19.41 -1.48 -8.67 0 0 0 Z M-12.51 24.17 C-12.64 25.97 -12.71 27.77 -12.74 29.57 C-12.77 30.73 -12.8 31.88 -12.82 33.07 C-12.85 34.33 -12.87 35.59 -12.89 36.88 C-12.92 38.16 -12.95 39.45 -12.97 40.77 C-13.02 43.48 -13.07 46.2 -13.12 48.91 C-13.18 52.4 -13.25 55.88 -13.33 59.37 C-13.4 62.69 -13.46 66 -13.52 69.32 C-13.55 70.58 -13.58 71.83 -13.61 73.12 C-13.62 74.28 -13.64 75.44 -13.66 76.63 C-13.68 77.66 -13.7 78.68 -13.72 79.73 C-13.76 82.35 -13.76 82.35 -11.51 84.17 C-8.88 84.46 -8.88 84.46 -5.77 84.4 C-4.56 84.39 -3.34 84.39 -2.08 84.39 C-0.8 84.38 0.49 84.37 1.81 84.36 C2.99 84.36 4.17 84.36 5.38 84.36 C9.79 84.35 14.21 84.32 18.62 84.29 C28.48 84.25 38.33 84.21 48.49 84.17 C48.49 64.04 48.49 43.91 48.49 23.17 C38.61 23.15 28.73 23.13 18.55 23.11 C15.43 23.1 12.31 23.09 9.09 23.08 C6.63 23.07 4.17 23.07 1.71 23.07 C0.42 23.07 -0.87 23.06 -2.2 23.05 C-3.41 23.05 -4.63 23.05 -5.89 23.05 C-6.95 23.05 -8.01 23.05 -9.11 23.05 C-11.46 22.9 -11.46 22.9 -12.51 24.17 Z " fill="#FAFCFC" transform="translate(186.5078125,768.83203125)"/>
<path d="M0 0 C0.65 -0 1.3 -0.01 1.97 -0.01 C4.11 -0.02 6.24 -0.02 8.37 -0.02 C9.86 -0.03 11.36 -0.03 12.85 -0.03 C15.98 -0.04 19.11 -0.04 22.23 -0.04 C26.22 -0.04 30.21 -0.05 34.2 -0.07 C37.28 -0.08 40.37 -0.08 43.46 -0.08 C44.93 -0.08 46.4 -0.09 47.86 -0.1 C65.67 -0.18 65.67 -0.18 73.09 4.15 C73.09 4.81 73.09 5.47 73.09 6.15 C74.08 6.48 75.07 6.81 76.09 7.15 C82.52 15.11 81.39 27.19 81.36 36.81 C81.36 38.2 81.36 39.6 81.36 41 C81.36 43.92 81.36 46.83 81.35 49.75 C81.34 53.46 81.35 57.18 81.36 60.89 C81.37 63.77 81.36 66.66 81.36 69.54 C81.36 70.91 81.36 72.28 81.36 73.65 C81.42 93.62 81.42 93.62 75.72 99.52 C75.13 100.15 74.54 100.77 73.94 101.42 C73.33 101.99 72.72 102.56 72.09 103.15 C71.28 103.93 71.28 103.93 70.46 104.73 C67.15 106.71 64.06 106.57 60.31 106.55 C59.53 106.56 58.75 106.56 57.95 106.57 C55.38 106.59 52.8 106.58 50.23 106.58 C48.43 106.58 46.64 106.59 44.85 106.59 C41.09 106.6 37.33 106.6 33.57 106.59 C28.76 106.58 23.95 106.6 19.14 106.63 C15.44 106.65 11.73 106.65 8.03 106.64 C6.25 106.64 4.48 106.65 2.71 106.66 C0.22 106.67 -2.26 106.66 -4.74 106.65 C-5.47 106.66 -6.2 106.67 -6.94 106.68 C-13 106.59 -17.39 104.72 -21.65 100.36 C-22.21 99.51 -22.21 99.51 -22.78 98.65 C-23.37 97.79 -23.37 97.79 -23.96 96.93 C-26.19 92.73 -26.07 88.53 -26.13 83.85 C-26.14 83.13 -26.15 82.4 -26.17 81.65 C-26.2 79.25 -26.23 76.85 -26.26 74.45 C-26.28 72.79 -26.31 71.12 -26.33 69.45 C-26.38 65.95 -26.42 62.46 -26.47 58.96 C-26.52 54.48 -26.59 50 -26.65 45.52 C-26.7 42.08 -26.75 38.63 -26.79 35.19 C-26.81 33.54 -26.84 31.88 -26.86 30.23 C-26.89 27.92 -26.92 25.61 -26.95 23.31 C-26.96 21.99 -26.98 20.68 -27 19.33 C-26.91 16.15 -26.91 16.15 -25.91 13.15 C-25.25 12.82 -24.59 12.49 -23.91 12.15 C-23.64 11.2 -23.37 10.25 -23.1 9.27 C-21.91 6.15 -21.91 6.15 -19.47 4.27 C-16.91 3.15 -16.91 3.15 -13.91 3.15 C-13.91 2.49 -13.91 1.83 -13.91 1.15 C-9.23 0.4 -4.74 0.02 0 0 Z M-3.91 23.15 C-3.93 33.02 -3.95 42.9 -3.97 53.08 C-3.98 56.21 -3.99 59.33 -4 62.55 C-4 65.01 -4.01 67.46 -4.01 69.92 C-4.01 71.21 -4.02 72.5 -4.02 73.83 C-4.02 75.05 -4.02 76.27 -4.02 77.52 C-4.03 78.59 -4.03 79.65 -4.03 80.75 C-4.18 83.1 -4.18 83.1 -2.91 84.15 C-1.04 84.24 0.83 84.27 2.7 84.27 C4.49 84.28 4.49 84.28 6.33 84.28 C8.28 84.28 8.28 84.28 10.28 84.28 C11.62 84.28 12.96 84.28 14.3 84.28 C17.12 84.28 19.93 84.28 22.75 84.28 C26.36 84.27 29.98 84.27 33.59 84.28 C36.36 84.28 39.13 84.28 41.9 84.28 C43.89 84.28 45.87 84.28 47.85 84.28 C49.05 84.28 50.25 84.28 51.48 84.27 C53.08 84.27 53.08 84.27 54.7 84.27 C57.04 84.41 57.04 84.41 58.09 83.15 C58.18 81.27 58.21 79.4 58.2 77.52 C58.2 75.7 58.2 75.7 58.2 73.83 C58.2 72.54 58.19 71.25 58.19 69.92 C58.19 68.15 58.19 68.15 58.18 66.35 C58.18 61.93 58.17 57.51 58.15 53.08 C58.13 43.2 58.11 33.32 58.09 23.15 C37.63 23.15 17.17 23.15 -3.91 23.15 Z " fill="#FAFCFC" transform="translate(815.909912109375,768.854736328125)"/>
<path d="M0 0 C3.62 -0.06 7.25 -0.09 10.88 -0.12 C11.91 -0.14 12.94 -0.16 14 -0.18 C14.99 -0.18 15.98 -0.19 16.99 -0.2 C18.36 -0.21 18.36 -0.21 19.75 -0.23 C22 0 22 0 24 2 C24.25 4.86 24.37 7.64 24.41 10.51 C24.43 11.25 24.45 12 24.47 12.77 C24.53 15.55 24.58 18.34 24.62 21.12 C24.75 27.35 24.87 33.58 25 40 C54.7 40.5 54.7 40.5 85 41 C84.67 40.01 84.34 39.02 84 38 C83.91 35.12 83.88 32.27 83.9 29.39 C83.9 28.56 83.91 27.72 83.91 26.85 C83.91 24.17 83.92 21.49 83.94 18.81 C83.94 17 83.95 15.18 83.95 13.36 C83.96 8.91 83.98 4.45 84 0 C87.62 -0.06 91.25 -0.09 94.88 -0.12 C95.91 -0.14 96.94 -0.16 98 -0.18 C98.99 -0.18 99.98 -0.19 100.99 -0.2 C102.36 -0.21 102.36 -0.21 103.75 -0.23 C106 0 106 0 108 2 C108.2 4.66 108.27 7.22 108.26 9.89 C108.26 10.7 108.27 11.52 108.27 12.36 C108.28 15.06 108.27 17.77 108.27 20.47 C108.27 22.35 108.27 24.24 108.27 26.12 C108.27 30.07 108.27 34.02 108.26 37.97 C108.25 43.02 108.26 48.07 108.27 53.12 C108.28 57.01 108.27 60.9 108.27 64.79 C108.27 66.65 108.27 68.51 108.27 70.37 C108.28 72.98 108.27 75.59 108.26 78.21 C108.26 78.97 108.27 79.73 108.27 80.51 C108.22 87.2 107.8 94.17 103.5 99.56 C101 102 101 102 99 102 C99 102.66 99 103.32 99 104 C96.19 105.59 94.18 106.25 90.95 106.24 C89.76 106.24 89.76 106.24 88.54 106.25 C87.24 106.24 87.24 106.24 85.92 106.23 C85 106.23 84.08 106.23 83.14 106.23 C80.11 106.23 77.08 106.21 74.05 106.2 C71.95 106.19 69.84 106.19 67.74 106.19 C62.21 106.18 56.68 106.16 51.15 106.14 C45.51 106.12 39.86 106.11 34.22 106.1 C23.15 106.08 12.07 106.04 1 106 C-2.28 99.43 0 91.34 0 84 C41.58 83.5 41.58 83.5 84 83 C84 78.38 84 73.76 84 69 C84.5 67.51 84.5 67.51 85 66 C84.16 65.99 83.32 65.98 82.46 65.98 C74.54 65.9 66.63 65.81 58.71 65.71 C54.64 65.66 50.57 65.62 46.51 65.58 C42.58 65.54 38.65 65.49 34.72 65.44 C33.22 65.42 31.72 65.41 30.23 65.4 C28.13 65.38 26.02 65.35 23.92 65.32 C22.73 65.31 21.53 65.29 20.3 65.28 C16.92 64.99 14.17 64.21 11 63 C11 62.34 11 61.68 11 61 C10.01 61 9.02 61 8 61 C8 60.34 8 59.68 8 59 C7.34 59 6.68 59 6 59 C4.75 57.6 4.75 57.6 3.44 55.62 C3 55 2.57 54.37 2.12 53.73 C-0.73 46.79 -0.14 38.45 -0.1 31.05 C-0.1 30.16 -0.09 29.26 -0.09 28.34 C-0.09 25.52 -0.08 22.7 -0.06 19.88 C-0.06 17.95 -0.05 16.02 -0.05 14.09 C-0.04 9.39 -0.02 4.7 0 0 Z " fill="#FAFCFC" transform="translate(905,769)"/>
<path d="M0 0 C11.47 -0.05 22.93 -0.08 34.4 -0.1 C39.72 -0.11 45.05 -0.13 50.37 -0.15 C55.51 -0.17 60.66 -0.18 65.8 -0.19 C67.76 -0.19 69.71 -0.2 71.67 -0.21 C74.42 -0.23 77.17 -0.23 79.92 -0.23 C80.73 -0.23 81.53 -0.24 82.36 -0.25 C88.75 -0.23 94.56 0.37 100 4 C100 4.66 100 5.32 100 6 C100.61 6.24 101.23 6.48 101.86 6.73 C104.51 8.3 105.04 9.55 106.19 12.38 C106.51 13.15 106.83 13.92 107.17 14.71 C109.3 20.57 109.18 26.07 109.19 32.25 C109.2 33.26 109.21 34.27 109.22 35.32 C109.24 43.92 108.57 51.04 103 58 C97.63 63.34 92.92 65.24 85.39 65.3 C83.41 65.33 83.41 65.33 81.4 65.35 C79.97 65.36 78.54 65.37 77.11 65.38 C75.64 65.4 74.17 65.41 72.7 65.43 C68.84 65.48 64.98 65.51 61.12 65.54 C54.93 65.59 48.74 65.66 42.54 65.73 C40.38 65.75 38.21 65.77 36.05 65.79 C34.09 65.81 34.09 65.81 32.09 65.83 C30.94 65.84 29.78 65.85 28.59 65.86 C26.07 65.71 26.07 65.71 25 67 C24.84 69.88 24.74 72.74 24.68 75.63 C24.66 76.49 24.64 77.36 24.62 78.25 C24.56 81.02 24.5 83.79 24.44 86.56 C24.39 88.44 24.35 90.31 24.31 92.19 C24.2 96.79 24.1 101.4 24 106 C20.38 106.06 16.75 106.09 13.12 106.12 C12.09 106.14 11.06 106.16 10 106.18 C9.01 106.18 8.02 106.19 7.01 106.2 C6.1 106.21 5.19 106.22 4.25 106.23 C2 106 2 106 0 104 C-0.25 102.13 -0.25 102.13 -0.24 99.81 C-0.24 98.93 -0.25 98.06 -0.25 97.15 C-0.24 96.19 -0.23 95.22 -0.23 94.23 C-0.23 93.21 -0.23 92.2 -0.23 91.15 C-0.23 87.79 -0.21 84.42 -0.2 81.05 C-0.19 78.73 -0.19 76.4 -0.19 74.07 C-0.18 67.93 -0.16 61.79 -0.14 55.65 C-0.12 49.39 -0.11 43.13 -0.1 36.87 C-0.08 24.58 -0.04 12.29 0 0 Z M25 23 C23.82 26.53 23.87 29.4 23.88 33.12 C23.87 34.39 23.87 35.65 23.87 36.95 C23.65 39.88 23.65 39.88 25 41 C26.87 41.09 28.75 41.12 30.62 41.11 C31.82 41.11 33.02 41.11 34.26 41.11 C36.22 41.11 36.22 41.11 38.22 41.1 C39.57 41.1 40.91 41.09 42.25 41.09 C45.8 41.09 49.34 41.08 52.88 41.07 C56.5 41.06 60.11 41.05 63.72 41.05 C70.81 41.04 77.91 41.02 85 41 C85.33 35.06 85.66 29.12 86 23 C65.87 23 45.74 23 25 23 Z " fill="#FBFDFD" transform="translate(34,769)"/>
<path d="M0 0 C3.46 -0.03 6.92 -0.05 10.38 -0.06 C11.36 -0.07 12.34 -0.08 13.36 -0.09 C14.77 -0.09 14.77 -0.09 16.21 -0.1 C17.51 -0.11 17.51 -0.11 18.85 -0.11 C21 0 21 0 23 1 C24.4 27.65 24.1 54.32 24 81 C24.99 81 25.99 81 27.01 81 C36.37 81.02 45.73 81.06 55.08 81.13 C59.9 81.17 64.71 81.19 69.52 81.2 C74.16 81.2 78.8 81.23 83.45 81.27 C85.22 81.29 86.99 81.29 88.76 81.29 C91.24 81.28 93.72 81.31 96.2 81.34 C96.94 81.33 97.67 81.32 98.43 81.31 C101.87 81.39 103.73 81.79 106.47 83.93 C108.64 88.28 108.44 92.03 108.25 96.81 C108.23 97.7 108.21 98.58 108.2 99.49 C108.15 101.66 108.08 103.83 108 106 C95.75 106.16 83.5 106.29 71.26 106.36 C65.57 106.4 59.88 106.45 54.19 106.53 C48.7 106.6 43.21 106.65 37.72 106.66 C35.62 106.68 33.53 106.7 31.44 106.74 C28.5 106.79 25.57 106.8 22.63 106.79 C21.34 106.83 21.34 106.83 20.02 106.87 C13.97 106.8 10.98 104.99 6.65 100.81 C0.74 94.31 -0.15 89.02 -0.11 80.38 C-0.11 79.51 -0.11 78.64 -0.11 77.74 C-0.11 74.88 -0.11 72.01 -0.1 69.14 C-0.1 67.15 -0.09 65.16 -0.09 63.17 C-0.09 57.94 -0.08 52.7 -0.07 47.47 C-0.06 42.13 -0.05 36.78 -0.05 31.44 C-0.04 20.96 -0.02 10.48 0 0 Z " fill="#FAFCFC" transform="translate(383,769)"/>
<path d="M0 0 C0.88 -0.01 1.76 -0.02 2.67 -0.04 C3.51 -0.04 4.35 -0.04 5.22 -0.04 C5.99 -0.05 6.76 -0.05 7.56 -0.06 C9.5 0.19 9.5 0.19 11.5 2.19 C11.69 4.81 11.75 7.32 11.73 9.94 C11.73 10.74 11.73 11.54 11.73 12.37 C11.73 15.02 11.71 17.67 11.7 20.32 C11.69 22.16 11.69 23.99 11.69 25.83 C11.68 30.66 11.66 35.5 11.64 40.34 C11.62 45.27 11.61 50.2 11.6 55.14 C11.58 64.82 11.54 74.5 11.5 84.19 C13.03 84.18 13.03 84.18 14.6 84.17 C24.22 84.13 33.85 84.1 43.47 84.08 C48.42 84.07 53.37 84.06 58.31 84.04 C63.09 84.01 67.86 84 72.63 84 C74.46 83.99 76.28 83.99 78.1 83.98 C80.65 83.96 83.2 83.96 85.75 83.96 C86.88 83.95 86.88 83.95 88.05 83.94 C93.27 83.96 93.27 83.96 95.5 86.19 C95.73 88.25 95.73 88.25 95.7 90.76 C95.69 91.65 95.68 92.55 95.68 93.47 C95.65 94.88 95.65 94.88 95.62 96.31 C95.62 97.26 95.61 98.2 95.6 99.18 C95.57 101.51 95.54 103.85 95.5 106.19 C83.36 106.28 71.23 106.35 59.09 106.39 C53.46 106.42 47.82 106.44 42.19 106.49 C36.75 106.53 31.31 106.56 25.87 106.57 C23.8 106.57 21.72 106.59 19.65 106.61 C16.74 106.64 13.83 106.64 10.92 106.64 C9.64 106.66 9.64 106.66 8.34 106.69 C2.57 106.65 -0.74 105.47 -5.5 102.19 C-7.24 100.41 -7.24 100.41 -8.38 98.69 C-8.96 97.84 -8.96 97.84 -9.55 96.97 C-11.98 92.4 -11.64 87.52 -11.61 82.47 C-11.61 81.59 -11.61 80.71 -11.61 79.81 C-11.61 76.91 -11.61 74.01 -11.6 71.11 C-11.6 69.1 -11.59 67.09 -11.59 65.07 C-11.59 59.78 -11.58 54.49 -11.57 49.19 C-11.56 43.79 -11.55 38.39 -11.55 32.98 C-11.54 22.39 -11.52 11.79 -11.5 1.19 C-7.96 -0.58 -3.89 0 0 0 Z " fill="#FBFDFD" transform="translate(1149.5,768.8125)"/>
<path d="M0 0 C0.89 -0 1.79 -0 2.71 -0 C3.65 -0 4.59 0 5.56 0.01 C6.97 0 6.97 0 8.41 -0 C9.76 -0 9.76 -0 11.12 0 C11.95 0 12.78 0 13.63 0 C15.56 0.13 15.56 0.13 16.56 1.13 C16.69 3.69 16.75 6.22 16.77 8.77 C16.78 9.57 16.79 10.37 16.8 11.2 C16.83 13.85 16.85 16.51 16.88 19.17 C16.9 21.01 16.92 22.84 16.94 24.68 C17 29.52 17.05 34.37 17.09 39.21 C17.14 44.15 17.2 49.09 17.26 54.03 C17.36 63.73 17.46 73.43 17.56 83.13 C18.59 83.14 19.61 83.14 20.66 83.15 C30.29 83.21 39.91 83.28 49.53 83.37 C54.48 83.41 59.43 83.45 64.38 83.48 C69.15 83.51 73.92 83.55 78.69 83.6 C80.52 83.61 82.34 83.62 84.16 83.63 C86.71 83.64 89.26 83.67 91.81 83.7 C92.95 83.7 92.95 83.7 94.11 83.7 C96.21 83.73 96.21 83.73 99.56 84.13 C101.66 87.29 101.81 87.99 101.76 91.58 C101.75 92.43 101.74 93.28 101.74 94.15 C101.71 95.47 101.71 95.47 101.69 96.82 C101.68 97.71 101.67 98.61 101.66 99.53 C101.64 101.73 101.6 103.93 101.56 106.13 C89.39 106.18 77.22 106.21 65.05 106.24 C59.4 106.25 53.75 106.26 48.1 106.28 C42.65 106.31 37.19 106.32 31.74 106.32 C29.66 106.33 27.58 106.33 25.5 106.34 C22.59 106.36 19.67 106.36 16.76 106.36 C15.9 106.37 15.04 106.37 14.15 106.38 C9.83 106.37 6.5 106.15 2.56 104.13 C2.56 103.47 2.56 102.81 2.56 102.13 C1.57 101.8 0.58 101.47 -0.44 101.13 C-0.44 100.47 -0.44 99.81 -0.44 99.13 C-1.43 98.8 -2.42 98.47 -3.44 98.13 C-5.76 93.19 -5.72 88.46 -5.68 83.11 C-5.68 82.23 -5.68 81.34 -5.69 80.43 C-5.69 77.51 -5.68 74.59 -5.67 71.68 C-5.67 69.65 -5.67 67.62 -5.67 65.59 C-5.67 61.34 -5.66 57.1 -5.64 52.86 C-5.63 47.4 -5.62 41.95 -5.62 36.5 C-5.62 32.31 -5.62 28.13 -5.61 23.94 C-5.61 21.93 -5.61 19.92 -5.6 17.91 C-5.6 15.11 -5.59 12.31 -5.58 9.5 C-5.58 8.67 -5.58 7.83 -5.58 6.97 C-5.55 0.01 -5.55 0.01 0 0 Z " fill="#FBFDFD" transform="translate(273.4375,768.8671875)"/>
<path d="M0 0 C26.07 0 52.14 0 79 0 C79 0.33 79 0.66 79 1 C52.93 1 26.86 1 0 1 C0 0.67 0 0.34 0 0 Z " fill="#FBFDFD" transform="translate(1163,851)"/>
<path d="M0 0 C26.07 0 52.14 0 79 0 C79 0.33 79 0.66 79 1 C52.93 1 26.86 1 0 1 C0 0.67 0 0.34 0 0 Z " fill="#FBFDFD" transform="translate(909,851)"/>
<path d="M0 0 C25.41 0 50.82 0 77 0 C77 0.33 77 0.66 77 1 C51.59 1 26.18 1 0 1 C0 0.67 0 0.34 0 0 Z " fill="#FBFDFD" transform="translate(292,851)"/>
<path d="M0 0 C18.81 0 37.62 0 57 0 C57 0.33 57 0.66 57 1 C38.19 1 19.38 1 0 1 C0 0.67 0 0.34 0 0 Z " fill="#FBFDFD" transform="translate(814,851)"/>
<path d="M0 0 C0.33 0 0.66 0 1 0 C1 18.48 1 36.96 1 56 C0.67 56 0.34 56 0 56 C0 37.52 0 19.04 0 0 Z " fill="#FBFDFD" transform="translate(872,794)"/>
<path d="M0 0 C8.91 0 17.82 0 27 0 C27 0.33 27 0.66 27 1 C18.09 1 9.18 1 0 1 C0 0.67 0 0.34 0 0 Z " fill="#FBFDFD" transform="translate(1042,767)"/>
<path d="M0 0 C8.91 0 17.82 0 27 0 C27 0.33 27 0.66 27 1 C18.09 1 9.18 1 0 1 C0 0.67 0 0.34 0 0 Z " fill="#FBFDFD" transform="translate(674,767)"/>
<path d="M0 0 C8.58 0 17.16 0 26 0 C26 0.33 26 0.66 26 1 C17.42 1 8.84 1 0 1 C0 0.67 0 0.34 0 0 Z " fill="#FBFDFD" transform="translate(810,767)"/>
<path d="M0 0 C8.58 0 17.16 0 26 0 C26 0.33 26 0.66 26 1 C17.42 1 8.84 1 0 1 C0 0.67 0 0.34 0 0 Z " fill="#FBFDFD" transform="translate(37,767)"/>
<path d="M0 0 C8.25 0 16.5 0 25 0 C25 0.33 25 0.66 25 1 C16.75 1 8.5 1 0 1 C0 0.67 0 0.34 0 0 Z " fill="#FBFDFD" transform="translate(520,767)"/>
<path d="M0 0 C8.25 0 16.5 0 25 0 C25 0.33 25 0.66 25 1 C16.75 1 8.5 1 0 1 C0 0.67 0 0.34 0 0 Z " fill="#FBFDFD" transform="translate(172,767)"/>
<path d="M0 0 C7.92 0 15.84 0 24 0 C24 0.33 24 0.66 24 1 C16.08 1 8.16 1 0 1 C0 0.67 0 0.34 0 0 Z " fill="#FBFDFD" transform="translate(1080,767)"/>
<path d="M0 0 C7.26 0 14.52 0 22 0 C22 0.33 22 0.66 22 1 C14.74 1 7.48 1 0 1 C0 0.67 0 0.34 0 0 Z " fill="#FBFDFD" transform="translate(734,767)"/>
<path d="M0 0 C7.26 0 14.52 0 22 0 C22 0.33 22 0.66 22 1 C14.74 1 7.48 1 0 1 C0 0.67 0 0.34 0 0 Z " fill="#FBFDFD" transform="translate(212,767)"/>
<path d="M0 0 C6.93 0 13.86 0 21 0 C21 0.33 21 0.66 21 1 C14.07 1 7.14 1 0 1 C0 0.67 0 0.34 0 0 Z " fill="#FBFDFD" transform="translate(561,767)"/>
<path d="M0 0 C6.93 0 13.86 0 21 0 C21 0.33 21 0.66 21 1 C14.07 1 7.14 1 0 1 C0 0.67 0 0.34 0 0 Z " fill="#FBFDFD" transform="translate(97,767)"/>
<path d="M0 0 C6.6 0 13.2 0 20 0 C20 0.33 20 0.66 20 1 C13.4 1 6.8 1 0 1 C0 0.67 0 0.34 0 0 Z " fill="#FBFDFD" transform="translate(853,767)"/>
<path d="M0 0 C6.6 0 13.2 0 20 0 C20 0.33 20 0.66 20 1 C13.4 1 6.8 1 0 1 C0 0.67 0 0.34 0 0 Z " fill="#FBFDFD" transform="translate(267,767)"/>
<path d="M0 0 C6.27 0 12.54 0 19 0 C19 0.33 19 0.66 19 1 C12.73 1 6.46 1 0 1 C0 0.67 0 0.34 0 0 Z " fill="#FBFDFD" transform="translate(1138,767)"/>
<path d="M0 0 C5.61 0 11.22 0 17 0 C17 0.33 17 0.66 17 1 C11.39 1 5.78 1 0 1 C0 0.67 0 0.34 0 0 Z " fill="#FBFDFD" transform="translate(992,767)"/>
<path d="M0 0 C5.61 0 11.22 0 17 0 C17 0.33 17 0.66 17 1 C11.39 1 5.78 1 0 1 C0 0.67 0 0.34 0 0 Z " fill="#FBFDFD" transform="translate(385,767)"/>
<path d="M0 0 C5.28 0 10.56 0 16 0 C16 0.33 16 0.66 16 1 C10.72 1 5.44 1 0 1 C0 0.67 0 0.34 0 0 Z " fill="#FBFDFD" transform="translate(908,767)"/>
<path d="M0 0 C5.28 0 10.56 0 16 0 C16 0.33 16 0.66 16 1 C10.72 1 5.44 1 0 1 C0 0.67 0 0.34 0 0 Z " fill="#FBFDFD" transform="translate(1145,495)"/>
<path d="M0 0 C0 0.99 0 1.98 0 3 C-0.99 3 -1.98 3 -3 3 C-2.01 2.01 -1.02 1.02 0 0 Z " fill="#FBFDFD" transform="translate(600,541)"/>
<path d="M0 0 C1.65 0 3.3 0 5 0 C5 0.33 5 0.66 5 1 C3.35 1 1.7 1 0 1 C0 0.67 0 0.34 0 0 Z " fill="#446E4A" transform="translate(444,635)"/>
<path d="M0 0 C0.66 0.33 1.32 0.66 2 1 C1.01 1.66 0.02 2.32 -1 3 C-0.67 2.01 -0.34 1.02 0 0 Z " fill="#FBFDFD" transform="translate(45,579)"/>
<path d="M0 0 C4 1 4 1 4 1 Z " fill="#446E4A" transform="translate(371,635)"/>
<path d="M0 0 C4 1 4 1 4 1 Z " fill="#446E4A" transform="translate(696,471)"/>
<path d="M0 0 C3 1 3 1 3 1 Z " fill="#446E4A" transform="translate(177,576)"/>
<path d="M0 0 C3 1 3 1 3 1 Z " fill="#446E4A" transform="translate(444,548)"/>
<path d="M0 0 C3 1 3 1 3 1 Z " fill="#446E4A" transform="translate(354,548)"/>
<path d="M0 0 C0.33 0.66 0.66 1.32 1 2 C0.34 1.67 -0.32 1.34 -1 1 C-0.67 0.67 -0.34 0.34 0 0 Z " fill="#FBFDFD" transform="translate(605,540)"/>
<path d="M0 0 C2 1 2 1 2 1 Z " fill="#446E4A" transform="translate(153,571)"/>
<path d="M0 0 C2 1 2 1 2 1 Z " fill="#FBFDFD" transform="translate(427,531)"/>
<path d="M0 0 C2 1 2 1 2 1 Z " fill="#FBFDFD" transform="translate(606,457)"/>
<path d="M0 0 C2 1 2 1 2 1 Z " fill="#446E4A" transform="translate(770,356)"/>
<path d="" fill="#446E4A" transform="translate(0,0)"/>
<path d="" fill="#FBFDFD" transform="translate(0,0)"/>
<path d="" fill="#FBFDFD" transform="translate(0,0)"/>
<path d="" fill="#FBFDFD" transform="translate(0,0)"/>
<path d="" fill="#FBFDFD" transform="translate(0,0)"/>
<path d="" fill="#FBFDFD" transform="translate(0,0)"/>
<path d="" fill="#446E4A" transform="translate(0,0)"/>
<path d="" fill="#FBFDFD" transform="translate(0,0)"/>
<path d="" fill="#446E4A" transform="translate(0,0)"/>
<path d="" fill="#FBFDFD" transform="translate(0,0)"/>
<path d="" fill="#446E4A" transform="translate(0,0)"/>
<path d="" fill="#446E4A" transform="translate(0,0)"/>
<path d="" fill="#FBFDFD" transform="translate(0,0)"/>
<path d="" fill="#FBFDFD" transform="translate(0,0)"/>
<path d="" fill="#FBFDFD" transform="translate(0,0)"/>
<path d="" fill="#446E4A" transform="translate(0,0)"/>
<path d="" fill="#446E4A" transform="translate(0,0)"/>
<path d="" fill="#446E4A" transform="translate(0,0)"/>
<path d="" fill="#446E4A" transform="translate(0,0)"/>
<path d="" fill="#446E4A" transform="translate(0,0)"/>
<path d="" fill="#446E4A" transform="translate(0,0)"/>
<path d="" fill="#FBFDFD" transform="translate(0,0)"/>
<path d="" fill="#FBFDFD" transform="translate(0,0)"/>
<path d="" fill="#FBFDFD" transform="translate(0,0)"/>
<path d="" fill="#446E4A" transform="translate(0,0)"/>
<path d="" fill="#FBFDFD" transform="translate(0,0)"/>
<path d="" fill="#FBFDFD" transform="translate(0,0)"/>
<path d="" fill="#446E4A" transform="translate(0,0)"/>
<path d="" fill="#446E4A" transform="translate(0,0)"/>
<path d="" fill="#446E4A" transform="translate(0,0)"/>
<path d="" fill="#446E4A" transform="translate(0,0)"/>
<path d="" fill="#446E4A" transform="translate(0,0)"/>
<path d="" fill="#FBFDFD" transform="translate(0,0)"/>
<path d="" fill="#FBFDFD" transform="translate(0,0)"/>
<path d="" fill="#FBFDFD" transform="translate(0,0)"/>
<path d="" fill="#446E4A" transform="translate(0,0)"/>
<path d="" fill="#FBFDFD" transform="translate(0,0)"/>
<path d="" fill="#FBFDFD" transform="translate(0,0)"/>
<path d="" fill="#FBFDFD" transform="translate(0,0)"/>
<path d="" fill="#FBFDFD" transform="translate(0,0)"/>
<path d="" fill="#FBFDFD" transform="translate(0,0)"/>
<path d="" fill="#FBFDFD" transform="translate(0,0)"/>
<path d="" fill="#446E4A" transform="translate(0,0)"/>
<path d="" fill="#446E4A" transform="translate(0,0)"/>
<path d="" fill="#446E4A" transform="translate(0,0)"/>
<path d="" fill="#446E4A" transform="translate(0,0)"/>
<path d="" fill="#446E4A" transform="translate(0,0)"/>
<path d="" fill="#446E4A" transform="translate(0,0)"/>
<path d="" fill="#446E4A" transform="translate(0,0)"/>
<path d="" fill="#FBFDFD" transform="translate(0,0)"/>
<path d="" fill="#FBFDFD" transform="translate(0,0)"/>
<path d="" fill="#FBFDFD" transform="translate(0,0)"/>
<path d="" fill="#446E4A" transform="translate(0,0)"/>
<path d="" fill="#FBFDFD" transform="translate(0,0)"/>
<path d="" fill="#446E4A" transform="translate(0,0)"/>
<path d="" fill="#FBFDFD" transform="translate(0,0)"/>
<path d="" fill="#FBFDFD" transform="translate(0,0)"/>
<path d="" fill="#FBFDFD" transform="translate(0,0)"/>
<path d="" fill="#446E4A" transform="translate(0,0)"/>
<path d="" fill="#446E4A" transform="translate(0,0)"/>
<path d="" fill="#FBFDFD" transform="translate(0,0)"/>
<path d="" fill="#FBFDFD" transform="translate(0,0)"/>
<path d="" fill="#FBFDFD" transform="translate(0,0)"/>
<path d="" fill="#FBFDFD" transform="translate(0,0)"/>
<path d="" fill="#446E4A" transform="translate(0,0)"/>
<path d="" fill="#FBFDFD" transform="translate(0,0)"/>
<path d="" fill="#446E4A" transform="translate(0,0)"/>
<path d="" fill="#446E4A" transform="translate(0,0)"/>
<path d="" fill="#446E4A" transform="translate(0,0)"/>
<path d="" fill="#446E4A" transform="translate(0,0)"/>
<path d="" fill="#446E4A" transform="translate(0,0)"/>
<path d="" fill="#446E4A" transform="translate(0,0)"/>
<path d="" fill="#446E4A" transform="translate(0,0)"/>
<path d="" fill="#FBFDFD" transform="translate(0,0)"/>
<path d="" fill="#FBFDFD" transform="translate(0,0)"/>
<path d="" fill="#446E4A" transform="translate(0,0)"/>
<path d="" fill="#FBFDFD" transform="translate(0,0)"/>
</svg>
